DBRep_DrawableShape

CASCADE Topology V3, (c) Open Cascade
Locations 4
1
              1               0               0           -10.5 
              0 -0.994622018247973 0.103571428571437          89.581 
              0 -0.103571428571437 -0.994622018247973              -0 
2  1 -1 0
1
              1               0               0           -10.5 
              0 -0.994622018247973 0.103571428571437 91.4452857142857 
              0 -0.103571428571437 -0.994622018247973 -17.9031963284635 
2  3 -1 0
Curve2ds 0
Curves 72
1 3.9336529462625958 0 0 -0.13052619222005143 0.99144486137381038 0 
8 0 18.000000000000004
1 -6.7003830275468736 88.568371047026972 -0.10544651671492185 0 0.10357142857142931 -0.99462201824797403 
1 3.9336529462625958 0 0 -0.13052619222005143 0.99144486137381038 0 
8 0 18.000000000000004
1 -6.5663470537374042 91.445285714285717 -17.903196328463537 0 -0.10357142857142931 0.99462201824797403 
1 3.799616972453125 -1.0181042993164056 0 0.13052619222005188 0.99144486137381038 0 
1 3.799616972453125 -1.0181042993164056 0 0.13052619222005188 0.99144486137381038 0 
8 0 18.000000000000007
1 -6.7003830275468754 90.593628952973006 0.10544651671492217 0 0.1035714285714293 -0.99462201824797403 
1 3.4066433811349102 -1.9668264731312997 0 0.38268343236509056 0.92387953251128663 0 
1 3.4066433811349102 -1.9668264731312997 0 0.38268343236509056 0.92387953251128663 0 
8 0 18.000000000000007
1 -7.0933566188650898 91.537248916249382 0.20370702757433007 0 0.1035714285714293 -0.99462201824797403 
1 2.7815126731367226 -2.7815126731367239 0 0.6087614290087211 0.79335334029123505 0 
1 2.7815126731367226 -2.7815126731367239 0 0.6087614290087211 0.79335334029123505 0 
8 0 18.000000000000004
1 -7.7184873268632774 92.347553748737553 0.28808524114632744 0 0.10357142857142931 -0.99462201824797403 
1 1.9668264731312983 -3.4066433811349111 0 0.79335334029123517 0.60876142900872077 0 
1 1.9668264731312983 -3.4066433811349111 0 0.79335334029123517 0.60876142900872077 0 
8 0 18.000000000000004
1 -8.5331735268687012 92.969322515195501 0.35283092161757362 0 0.10357142857142931 -0.99462201824797403 
1 1.0181042993164007 -3.7996169724531264 0 0.92387953251128685 0.38268343236508967 0 
1 1.0181042993164007 -3.7996169724531264 0 0.92387953251128685 0.38268343236508967 0 
8 0 18.000000000000007
1 -9.4818957006835998 93.360182701710571 0.39353175786124928 0 0.1035714285714293 -0.99462201824797403 
1 -7.226003234395564e-16 -3.9336529462625958 0 0.99144486137381049 0.13052619222005116 0 
1 -7.226003234395564e-16 -3.9336529462625958 0 0.99144486137381049 0.13052619222005116 0 
8 0 18.000000000000004
1 -10.5 93.493497832498775 0.40741405514865975 0 0.10357142857142931 -0.99462201824797403 
1 -1.018104299316402 -3.7996169724531259 0 0.99144486137381038 -0.13052619222005157 0 
1 -1.018104299316402 -3.7996169724531259 0 0.99144486137381038 -0.13052619222005157 0 
8 0 18.000000000000007
1 -11.518104299316402 93.360182701710571 0.39353175786124922 0 0.1035714285714293 -0.99462201824797403 
1 -1.9668264731312997 -3.4066433811349102 0 0.92387953251128663 -0.38268343236509006 0 
1 -1.9668264731312997 -3.4066433811349102 0 0.92387953251128663 -0.38268343236509006 0 
8 0 18.000000000000004
1 -12.466826473131299 92.969322515195486 0.35283092161757351 0 0.10357142857142931 -0.99462201824797403 
1 -2.7815126731367248 -2.7815126731367217 0 0.79335334029123483 -0.6087614290087211 0 
1 -2.7815126731367248 -2.7815126731367217 0 0.79335334029123483 -0.6087614290087211 0 
8 0 18.000000000000004
1 -13.281512673136724 92.347553748737553 0.28808524114632716 0 0.10357142857142931 -0.99462201824797403 
1 -3.4066433811349119 -1.9668264731312968 0 0.60876142900872032 -0.79335334029123528 0 
1 -3.4066433811349119 -1.9668264731312968 0 0.60876142900872032 -0.79335334029123528 0 
8 0 18.000000000000004
1 -13.906643381134913 91.537248916249382 0.20370702757432976 0 0.10357142857142931 -0.99462201824797403 
1 -3.7996169724531259 -1.0181042993164027 0 0.38268343236508978 -0.92387953251128685 0 
1 -3.7996169724531259 -1.0181042993164027 0 0.38268343236508978 -0.92387953251128685 0 
8 0 18.000000000000004
1 -14.299616972453126 90.593628952973006 0.10544651671492188 0 0.10357142857142931 -0.99462201824797403 
1 -3.9336529462625958 4.8173354895970437e-16 0 0.13052619222005132 -0.99144486137381038 0 
1 -3.9336529462625958 4.8173354895970437e-16 0 0.13052619222005132 -0.99144486137381038 0 
8 0 18.000000000000004
1 -14.433652946262596 89.580999999999989 -4.9893831856544946e-17 0 0.10357142857142931 -0.99462201824797403 
1 -3.7996169724531255 1.0181042993164036 0 -0.13052619222005177 -0.99144486137381038 0 
1 -3.7996169724531255 1.0181042993164036 0 -0.13052619222005177 -0.99144486137381038 0 
8 0 18.000000000000004
1 -14.299616972453126 88.568371047026972 -0.10544651671492196 0 0.10357142857142931 -0.99462201824797403 
1 -3.4066433811349115 1.9668264731312977 0 -0.38268343236508978 -0.92387953251128685 0 
1 -3.4066433811349115 1.9668264731312977 0 -0.38268343236508978 -0.92387953251128685 0 
8 0 18.000000000000004
1 -13.906643381134911 87.624751083750596 -0.20370702757432985 0 0.10357142857142931 -0.99462201824797403 
1 -2.781512673136723 2.7815126731367235 0 -0.60876142900872077 -0.79335334029123494 0 
1 -2.781512673136723 2.7815126731367235 0 -0.60876142900872077 -0.79335334029123494 0 
8 0 18.000000000000004
1 -13.281512673136723 86.814446251262424 -0.28808524114632739 0 0.10357142857142931 -0.99462201824797403 
1 -1.966826473131297 3.4066433811349115 0 -0.79335334029123539 -0.60876142900872043 0 
1 -1.966826473131297 3.4066433811349115 0 -0.79335334029123539 -0.60876142900872043 0 
8 0 18.000000000000004
1 -12.466826473131297 86.192677484804477 -0.35283092161757362 0 0.10357142857142931 -0.99462201824797403 
1 -1.018104299316402 3.7996169724531259 0 -0.92387953251128663 -0.38268343236508984 0 
1 -1.018104299316402 3.7996169724531259 0 -0.92387953251128663 -0.38268343236508984 0 
8 0 18
1 -11.518104299316402 85.801817298289407 -0.39353175786124922 0 0.10357142857142934 -0.99462201824797403 
1 2.4086677447985218e-16 3.9336529462625958 0 -0.99144486137381038 -0.13052619222005146 0 
1 2.4086677447985218e-16 3.9336529462625958 0 -0.99144486137381038 -0.13052619222005146 0 
8 0 18.000000000000004
1 -10.5 85.668502167501202 -0.40741405514865975 0 0.10357142857142931 -0.99462201824797403 
1 1.0181042993164025 3.7996169724531259 0 -0.99144486137381038 0.13052619222005146 0 
1 1.0181042993164025 3.7996169724531259 0 -0.99144486137381038 0.13052619222005146 0 
8 0 18
1 -9.481895700683598 85.801817298289407 -0.39353175786124922 0 0.10357142857142934 -0.99462201824797403 
1 1.9668264731312983 3.4066433811349111 0 -0.92387953251128674 0.38268343236508989 0 
1 1.9668264731312983 3.4066433811349111 0 -0.92387953251128674 0.38268343236508989 0 
8 0 18.000000000000004
1 -8.5331735268687012 86.192677484804477 -0.35283092161757362 0 0.10357142857142931 -0.99462201824797403 
1 2.7815126731367235 2.781512673136723 0 -0.79335334029123505 0.60876142900872077 0 
1 2.7815126731367235 2.781512673136723 0 -0.79335334029123505 0.60876142900872077 0 
8 0 18.000000000000004
1 -7.7184873268632765 86.814446251262424 -0.28808524114632733 0 0.10357142857142931 -0.99462201824797403 
1 3.4066433811349115 1.9668264731312977 0 -0.60876142900872066 0.79335334029123505 0 
1 3.4066433811349115 1.9668264731312977 0 -0.60876142900872066 0.79335334029123505 0 
8 0 18.000000000000004
1 -7.0933566188650889 87.624751083750596 -0.20370702757432985 0 0.10357142857142931 -0.99462201824797403 
1 3.7996169724531259 1.0181042993164025 0 -0.38268343236508984 0.92387953251128685 0 
1 3.7996169724531259 1.0181042993164025 0 -0.38268343236508984 0.92387953251128685 0 
Polygon3D 0
PolygonOnTriangulations 0
Surfaces 74
1 -6.5663470537374042 89.658678571428553 -0.7459665136859801 0.99144486137381049 -0.12982422474013075 -0.013518784194218298 -0.13052619222005146 -0.98611288900120242 -0.10268536064228671 1.2073675392798575e-15 0.10357142857142759 -0.99462201824797425 
1 -6.5663470537374042 89.658678571428553 -0.7459665136859801 0.99144486137381049 -0.12982422474013075 -0.013518784194218298 -0.13052619222005146 -0.98611288900120242 -0.10268536064228671 1.2073675392798575e-15 0.10357142857142759 -0.99462201824797425 
1 -6.5663470537374042 89.580999999999989 0 -5.2634867031190615e-18 -0.10357142857143721 0.99462201824797325 -1 0 -5.2919466958822139e-18 5.4809447921641789e-19 -0.99462201824797325 -0.10357142857143721 
1 -6.5663470537374042 91.445285714285717 -17.903196328463537 0.99144486137381049 -0.12982422474013022 -0.013518784194223093 -0.13052619222005143 -0.98611288900120153 -0.10268536064229584 -2.3748364386122485e-15 0.10357142857143727 -0.99462201824797325 
1 -6.5663470537374042 91.445285714285717 -17.903196328463537 0 -0.10357142857143729 0.99462201824797325 -1 0 0 -0 -0.99462201824797325 -0.10357142857143729 
1 -6.7003830275468754 90.67130752440157 -0.64051999697106754 0.99144486137381038 0.12982422474013119 0.01351878419421817 0.13052619222005191 -0.98611288900120253 -0.10268536064228673 -1.3808398868775381e-15 0.10357142857142758 -0.99462201824797436 
1 -6.7003830275468754 90.67130752440157 -0.64051999697106754 0.99144486137381038 0.12982422474013119 0.01351878419421817 0.13052619222005191 -0.98611288900120253 -0.10268536064228673 -1.3808398868775381e-15 0.10357142857142758 -0.99462201824797436 
1 -6.7003830275468754 92.457914667258734 -17.797749811748616 0.99144486137381038 0.12982422474013064 0.013518784194223265 0.13052619222005188 -0.98611288900120142 -0.10268536064229583 2.5032059758345326e-15 0.10357142857143729 -0.99462201824797336 
1 -7.0933566188650898 91.614927487677946 -0.54225948611166852 0.92387953251128652 0.38062536784902901 0.039635069780665257 0.38268343236509056 -0.91891092524437068 -0.095687523010096795 -4.2119085996716876e-15 0.10357142857142607 -0.99462201824797458 
1 -7.0933566188650898 91.614927487677946 -0.54225948611166852 0.92387953251128652 0.38062536784902901 0.039635069780665257 0.38268343236509056 -0.91891092524437068 -0.095687523010096795 -4.2119085996716876e-15 0.10357142857142607 -0.99462201824797458 
1 -7.0933566188650898 93.40153463053511 -17.699489300889208 0.92387953251128652 0.38062536784902729 0.039635069780681223 0.3826834323650905 -0.9189109252443699 -0.095687523010105274 7.3621664320455677e-15 0.10357142857143997 -0.99462201824797303 
1 -7.7184873268632774 92.425232320166117 -0.45788127253967875 0.79335334029123494 0.60548752115217586 0.063050290861609209 0.6087614290087211 -0.78908670050424001 -0.082168738815877287 -6.2658211952282256e-15 0.10357142857142301 -0.99462201824797469 
1 -7.7184873268632774 92.425232320166117 -0.45788127253967875 0.79335334029123494 0.60548752115217586 0.063050290861609209 0.6087614290087211 -0.78908670050424001 -0.082168738815877287 -6.2658211952282256e-15 0.10357142857142301 -0.99462201824797469 
1 -7.7184873268632774 94.211839463023281 -17.61511108731721 0.79335334029123494 0.60548752115217308 0.063050290861635855 0.6087614290087211 -0.78908670050423935 -0.082168738815884587 1.0526302052227264e-14 0.10357142857144501 -0.99462201824797247 
1 -8.5331735268687012 93.047001086624064 -0.39313559206843846 0.60876142900872077 0.78908670050424123 0.082168738815866421 0.79335334029123505 -0.60548752115217475 -0.063050290861617023 -6.6474603599431248e-15 0.10357142857141916 -0.99462201824797514 
1 -8.5331735268687012 93.047001086624064 -0.39313559206843846 0.60876142900872077 0.78908670050424123 0.082168738815866421 0.79335334029123505 -0.60548752115217475 -0.063050290861617023 -6.6474603599431248e-15 0.10357142857141916 -0.99462201824797514 
1 -8.5331735268687012 94.833608229481229 -17.550365406845962 0.60876142900872077 0.78908670050423757 0.082168738815902545 0.79335334029123505 -0.60548752115217408 -0.063050290861622615 1.0984269049885143e-14 0.10357142857145123 -0.99462201824797192 
1 -9.4818957006835998 93.437861273139134 -0.35243475582476647 0.38268343236508967 0.91891092524437246 0.095687523010083708 0.92387953251128685 -0.38062536784902756 -0.039635069780669704 -5.0584536559483687e-15 0.10357142857141564 -0.99462201824797547 
1 -9.4818957006835998 93.437861273139134 -0.35243475582476647 0.38268343236508967 0.91891092524437246 0.095687523010083708 0.92387953251128685 -0.38062536784902756 -0.039635069780669704 -5.0584536559483687e-15 0.10357142857141564 -0.99462201824797547 
1 -9.4818957006835998 95.224468415996299 -17.50966457060229 0.38268343236508967 0.91891092524436802 0.095687523010126244 0.92387953251128685 -0.38062536784902723 -0.039635069780673209 8.0491169285323833e-15 0.10357142857145628 -0.99462201824797125 
1 -10.5 93.571176403927339 -0.33855245853735727 0.13052619222005116 0.98611288900120397 0.10268536064227249 0.99144486137381038 -0.12982422474013031 -0.013518784194219478 -1.8665624601510444e-15 0.10357142857141366 -0.99462201824797569 
1 -10.5 93.571176403927339 -0.33855245853735727 0.13052619222005116 0.98611288900120397 0.10268536064227249 0.99144486137381038 -0.12982422474013031 -0.013518784194219478 -1.8665624601510444e-15 0.10357142857141366 -0.99462201824797569 
1 -10.5 95.357783546784503 -17.495782273314877 0.13052619222005116 0.98611288900119909 0.10268536064231878 0.9914448613738106 -0.1298242247401302 -0.01351878419422068 3.0114799542957363e-15 0.10357142857145971 -0.99462201824797092 
1 -11.518104299316402 93.437861273139134 -0.35243475582476652 -0.1305261922200516 0.98611288900120397 0.10268536064227266 0.99144486137381049 0.12982422474013075 0.013518784194219525 1.8474805019152992e-15 0.10357142857141381 -0.99462201824797569 
1 -11.518104299316402 93.437861273139134 -0.35243475582476652 -0.1305261922200516 0.98611288900120397 0.10268536064227266 0.99144486137381049 0.12982422474013075 0.013518784194219525 1.8474805019152992e-15 0.10357142857141381 -0.99462201824797569 
1 -11.518104299316402 95.224468415996299 -17.50966457060229 -0.1305261922200516 0.98611288900119909 0.10268536064231829 0.99144486137381038 0.12982422474013064 0.013518784194220722 -2.9524993561125257e-15 0.10357142857145922 -0.99462201824797103 
1 -12.466826473131299 93.047001086624064 -0.39313559206843857 -0.38268343236509006 0.91891092524437046 0.095687523010101472 0.92387953251128663 0.38062536784902795 0.039635069780669746 -1.7694179454963432e-15 0.10357142857143209 -0.9946220182479738 
1 -12.466826473131299 93.047001086624064 -0.39313559206843857 -0.38268343236509006 0.91891092524437046 0.095687523010101472 0.92387953251128663 0.38062536784902795 0.039635069780669746 -1.7694179454963432e-15 0.10357142857143209 -0.9946220182479738 
1 -12.466826473131299 94.833608229481214 -17.550365406845962 -0.38268343236509011 0.91891092524436957 0.09568752301010891 0.92387953251128674 0.38062536784902773 0.039635069780673257 -1.3947176746853525e-15 0.10357142857144029 -0.99462201824797292 
1 -13.281512673136724 92.425232320166117 -0.45788127253967903 -0.60876142900872121 0.78908670050424101 0.082168738815867046 0.79335334029123494 0.60548752115217519 0.063050290861617064 6.2519434074204112e-15 0.10357142857141968 -0.99462201824797514 
1 -13.281512673136724 92.425232320166117 -0.45788127253967903 -0.60876142900872121 0.78908670050424101 0.082168738815867046 0.79335334029123494 0.60548752115217519 0.063050290861617064 6.2519434074204112e-15 0.10357142857141968 -0.99462201824797514 
1 -13.281512673136724 94.211839463023281 -17.61511108731721 -0.6087614290087211 0.78908670050423735 0.08216873881590174 0.79335334029123483 0.60548752115217452 0.063050290861622657 -1.0519363158323358e-14 0.1035714285714506 -0.99462201824797192 
1 -13.906643381134913 91.614927487677946 -0.54225948611166874 -0.79335334029123539 0.60548752115217519 0.063050290861609778 0.60876142900872043 0.78908670050424057 0.082168738815877315 5.7454041524351851e-15 0.10357142857142339 -0.9946220182479748 
1 -13.906643381134913 91.614927487677946 -0.54225948611166874 -0.79335334029123539 0.60548752115217519 0.063050290861609778 0.60876142900872043 0.78908670050424057 0.082168738815877315 5.7454041524351851e-15 0.10357142857142339 -0.9946220182479748 
1 -13.906643381134913 93.40153463053511 -17.699489300889208 -0.7933533402912355 0.60548752115217253 0.063050290861635189 0.60876142900872043 0.78908670050423979 0.082168738815884601 -1.0068335054569387e-14 0.10357142857144462 -0.99462201824797258 
1 -14.299616972453126 90.67130752440157 -0.64051999697106776 -0.92387953251128685 0.38062536784902823 0.039635069780665652 0.38268343236508978 0.91891092524437101 0.095687523010096809 3.760880495917717e-15 0.10357142857142619 -0.99462201824797436 
1 -14.299616972453126 90.67130752440157 -0.64051999697106776 -0.92387953251128685 0.38062536784902823 0.039635069780665652 0.38268343236508978 0.91891092524437101 0.095687523010096809 3.760880495917717e-15 0.10357142857142619 -0.99462201824797436 
1 -14.299616972453126 92.457914667258734 -17.797749811748616 -0.92387953251128685 0.38062536784902662 0.039635069780680578 0.38268343236508984 0.91891092524437012 0.09568752301010533 -6.8209327075408055e-15 0.10357142857143981 -0.99462201824797314 
1 -14.433652946262596 89.658678571428553 -0.7459665136859801 -0.99144486137381049 0.12982422474013064 0.013518784194218286 0.13052619222005138 0.98611288900120253 0.10268536064228674 1.2108369862318112e-15 0.10357142857142762 -0.99462201824797425 
1 -14.433652946262596 89.658678571428553 -0.7459665136859801 -0.99144486137381049 0.12982422474013064 0.013518784194218286 0.13052619222005138 0.98611288900120253 0.10268536064228674 1.2108369862318112e-15 0.10357142857142762 -0.99462201824797425 
1 -14.433652946262596 91.445285714285717 -17.903196328463537 -0.99144486137381049 0.12982422474013011 0.013518784194223081 0.13052619222005132 0.98611288900120153 0.10268536064229584 -2.3765711620882253e-15 0.10357142857143727 -0.99462201824797325 
1 -14.299616972453126 88.646049618455535 -0.85141303040089256 -0.99144486137381038 -0.12982422474013106 -0.013518784194218501 -0.1305261922200518 0.98611288900120242 0.10268536064228673 -1.0425688090620611e-15 0.10357142857142765 -0.99462201824797436 
1 -14.299616972453126 88.646049618455535 -0.85141303040089256 -0.99144486137381038 -0.12982422474013106 -0.013518784194218501 -0.1305261922200518 0.98611288900120242 0.10268536064228673 -1.0425688090620611e-15 0.10357142857142765 -0.99462201824797436 
1 -14.299616972453126 90.4326567613127 -18.008642845178457 -0.99144486137381038 -0.12982422474013056 -0.013518784194222999 -0.13052619222005177 0.98611288900120142 0.10268536064229583 2.2499363483419188e-15 0.10357142857143727 -0.99462201824797336 
1 -13.906643381134911 87.702429655179159 -0.94967354126029146 -0.92387953251128674 -0.38062536784902801 -0.039635069780667116 -0.38268343236508984 0.91891092524437101 0.095687523010096837 -2.4147350785597155e-15 0.1035714285714268 -0.99462201824797447 
1 -13.906643381134911 87.702429655179159 -0.94967354126029146 -0.92387953251128674 -0.38062536784902801 -0.039635069780667116 -0.38268343236508984 0.91891092524437101 0.095687523010096837 -2.4147350785597155e-15 0.1035714285714268 -0.99462201824797447 
1 -13.906643381134911 89.489036798036324 -18.106903356037865 -0.92387953251128674 -0.38062536784902667 -0.039635069780679273 -0.38268343236508973 0.91891092524437012 0.09568752301010533 5.620504062164855e-15 0.10357142857143931 -0.99462201824797303 
1 -13.281512673136723 86.892124822690988 -1.0340517548322814 -0.79335334029123505 -0.60548752115217519 -0.063050290861613539 -0.60876142900872088 0.78908670050424012 0.082168738815877287 -2.7824964554667986e-15 0.10357142857142566 -0.99462201824797458 
1 -13.281512673136723 86.892124822690988 -1.0340517548322814 -0.79335334029123505 -0.60548752115217519 -0.063050290861613539 -0.60876142900872088 0.78908670050424012 0.082168738815877287 -2.7824964554667986e-15 0.10357142857142566 -0.99462201824797458 
1 -13.281512673136723 88.678731965548153 -18.191281569609863 -0.79335334029123494 -0.6054875211521733 -0.06305029086163165 -0.60876142900872088 0.78908670050423935 0.082168738815884573 7.1956329783517974e-15 0.10357142857144248 -0.99462201824797281 
1 -12.466826473131297 86.270356056233041 -1.0987974353035219 -0.60876142900872043 -0.78908670050424079 -0.082168738815873388 -0.79335334029123539 0.60548752115217441 0.063050290861616981 -2.3939183968479938e-15 0.10357142857142466 -0.99462201824797458 
1 -12.466826473131297 86.270356056233041 -1.0987974353035219 -0.60876142900872043 -0.78908670050424079 -0.082168738815873388 -0.79335334029123539 0.60548752115217441 0.063050290861616981 -2.3939183968479938e-15 0.10357142857142466 -0.99462201824797458 
1 -12.466826473131297 88.056963199090205 -18.256027250081111 -0.60876142900872054 -0.78908670050423857 -0.08216873881589562 -0.79335334029123528 0.60548752115217397 0.063050290861622588 6.7446048745978244e-15 0.10357142857144569 -0.99462201824797236 
1 -11.518104299316402 85.879495869717971 -1.1394982715471937 -0.38268343236508989 -0.91891092524437135 -0.095687523010092729 -0.92387953251128674 0.38062536784902784 0.039635069780669732 -1.5890067039947555e-15 0.10357142857142403 -0.99462201824797469 
1 -11.518104299316402 85.879495869717971 -1.1394982715471937 -0.38268343236508989 -0.91891092524437135 -0.095687523010092729 -0.92387953251128674 0.38062536784902784 0.039635069780669732 -1.5890067039947555e-15 0.10357142857142403 -0.99462201824797469 
1 -11.518104299316402 87.666103012575135 -18.296728086324784 -0.38268343236508989 -0.91891092524436868 -0.095687523010118111 -0.92387953251128674 0.38062536784902745 0.039635069780673243 4.9127368839663185e-15 0.10357142857144881 -0.99462201824797214 
1 -10.5 85.746180738929766 -1.1533805688346028 -0.13052619222005149 -0.98611288900120286 -0.10268536064228254 -0.99144486137381038 0.12982422474013064 0.013518784194219511 -5.4643789493269433e-16 0.10357142857142362 -0.99462201824797469 
1 -10.5 85.746180738929766 -1.1533805688346028 -0.13052619222005149 -0.98611288900120286 -0.10268536064228254 -0.99144486137381038 0.12982422474013064 0.013518784194219511 -5.4643789493269433e-16 0.10357142857142362 -0.99462201824797469 
1 -10.5 87.53278788178693 -18.310610383612197 -0.13052619222005152 -0.98611288900120009 -0.10268536064230911 -0.99144486137381038 0.12982422474013053 0.013518784194220715 1.7433970933566911e-15 0.10357142857145013 -0.99462201824797192 
1 -9.481895700683598 85.879495869717971 -1.1394982715471937 0.13052619222005149 -0.98611288900120286 -0.10268536064228234 -0.99144486137381049 -0.12982422474013067 -0.013518784194219511 5.6898930012039273e-16 0.10357142857142343 -0.9946220182479748 
1 -9.481895700683598 85.879495869717971 -1.1394982715471937 0.13052619222005149 -0.98611288900120286 -0.10268536064228234 -0.99144486137381049 -0.12982422474013067 -0.013518784194219511 5.6898930012039273e-16 0.10357142857142343 -0.9946220182479748 
1 -9.481895700683598 87.666103012575135 -18.296728086324784 0.13052619222005152 -0.98611288900120009 -0.1026853606423096 -0.99144486137381049 -0.12982422474013056 -0.013518784194220715 -1.8093165854438098e-15 0.10357142857145063 -0.99462201824797203 
1 -8.5331735268687012 86.270356056233041 -1.0987974353035217 0.38268343236508978 -0.91891092524437135 -0.095687523010092271 -0.92387953251128674 -0.38062536784902778 -0.039635069780669718 1.755540157688529e-15 0.10357142857142358 -0.99462201824797469 
1 -8.5331735268687012 86.270356056233041 -1.0987974353035217 0.38268343236508978 -0.91891092524437135 -0.095687523010092271 -0.92387953251128674 -0.38062536784902778 -0.039635069780669718 1.755540157688529e-15 0.10357142857142358 -0.99462201824797469 
1 -8.5331735268687012 88.056963199090205 -18.256027250081111 0.38268343236508989 -0.91891092524436868 -0.095687523010118111 -0.92387953251128674 -0.38062536784902745 -0.039635069780673243 -4.9127368839663185e-15 0.10357142857144881 -0.99462201824797214 
1 -7.7184873268632765 86.892124822690988 -1.0340517548322814 0.60876142900872077 -0.78908670050424068 -0.082168738815872736 -0.79335334029123517 -0.60548752115217475 -0.063050290861617023 2.789435349370705e-15 0.10357142857142415 -0.99462201824797458 
1 -7.7184873268632765 86.892124822690988 -1.0340517548322814 0.60876142900872077 -0.78908670050424068 -0.082168738815872736 -0.79335334029123517 -0.60548752115217475 -0.063050290861617023 2.789435349370705e-15 0.10357142857142415 -0.99462201824797458 
1 -7.7184873268632765 88.678731965548153 -18.191281569609863 0.60876142900872077 -0.78908670050423813 -0.082168738815896356 -0.79335334029123505 -0.60548752115217419 -0.063050290861622629 -7.2025718722557031e-15 0.10357142857144633 -0.99462201824797236 
1 -7.0933566188650889 87.702429655179159 -0.94967354126029146 0.79335334029123517 -0.60548752115217519 -0.063050290861612901 -0.60876142900872077 -0.78908670050424023 -0.082168738815877329 3.3098523921637479e-15 0.10357142857142532 -0.99462201824797458 
1 -7.0933566188650889 87.702429655179159 -0.94967354126029146 0.79335334029123517 -0.60548752115217519 -0.063050290861612901 -0.60876142900872077 -0.78908670050424023 -0.082168738815877329 3.3098523921637479e-15 0.10357142857142532 -0.99462201824797458 
1 -7.0933566188650889 89.489036798036324 -18.106903356037865 0.79335334029123517 -0.60548752115217308 -0.063050290861632247 -0.60876142900872077 -0.78908670050423957 -0.082168738815884601 -7.6813555516253002e-15 0.10357142857144283 -0.99462201824797269 
1 -6.7003830275468736 90.4326567613127 -18.008642845178457 0.92387953251128685 -0.38062536784902673 -0.039635069780679842 -0.38268343236508984 -0.91891092524437012 -0.095687523010105316 -6.1478599988618043e-15 0.10357142857143951 -0.99462201824797314 
1 -6.7003830275468736 88.646049618455535 -0.85141303040089245 0.92387953251128674 -0.38062536784902812 -0.039635069780666651 -0.38268343236508984 -0.91891092524437101 -0.095687523010096823 2.8449465006019636e-15 0.10357142857142661 -0.99462201824797447 
1 -6.7003830275468736 88.646049618455535 -0.85141303040089245 0.92387953251128674 -0.38062536784902812 -0.039635069780666651 -0.38268343236508984 -0.91891092524437101 -0.095687523010096823 2.8449465006019636e-15 0.10357142857142661 -0.99462201824797447 
Triangulations 0

TShapes 175
Ve
1e-07
3.9336529462626 0 0
0 0

0101101
*
Ve
1e-07
3.79961697245313 1.0181042993164 0
0 0

0101101
*
Ed
 1e-07 1 1 0
1  1 0 0 1.02688948118169
4 C0 2 2 3 2
0

0101000
+175 0 -174 0 *
Ve
1e-07
3.79961697245313 1.0181042993164 0
0 0

0101101
*
Ed
 1e-07 1 1 0
1  2 0 0 18
0

0101000
+174 1 -172 3 *
Ve
1e-07
3.9336529462626 0 0
0 0

0101101
*
Ed
 1e-07 1 1 0
1  3 0 0 1.02688948118169
4 C0 4 4 5 4
0

0101000
+170 0 -172 0 *
Ed
 1e-07 1 1 0
1  4 0 0 18
0

0101000
+170 3 -175 1 *
Wi

0101100
+173 1 +171 0 -169 3 +168 0 *
Fa
0  0 1 0

0111000
+167 0 *
Ve
1e-07
3.79961697245313 -1.01810429931641 0
0 0

0101101
*
Ed
 1e-07 1 1 0
1  5 0 0 1.02688948118169
4 C0 7 2 3 2
0

0101000
+165 0 -175 0 *
Ve
1e-07
3.79961697245313 -1.01810429931641 0
0 0

0101101
*
Ed
 1e-07 1 1 0
1  6 0 0 1.02688948118169
4 C0 8 4 5 4
0

0101000
+163 0 -170 0 *
Ed
 1e-07 1 1 0
1  7 0 0 18
0

0101000
+165 1 -163 3 *
Wi

0101100
+164 1 -168 0 -162 3 -161 0 *
Fa
0  0 6 0

0111000
+160 0 *
Ve
1e-07
3.40664338113491 -1.9668264731313 0
0 0

0101101
*
Ed
 1e-07 1 1 0
1  8 0 0 1.02688948118169
4 C0 10 2 3 2
0

0101000
+158 0 -165 0 *
Ve
1e-07
3.40664338113491 -1.9668264731313 0
0 0

0101101
*
Ed
 1e-07 1 1 0
1  9 0 0 1.02688948118169
4 C0 11 4 5 4
0

0101000
+156 0 -163 0 *
Ed
 1e-07 1 1 0
1  10 0 0 18
0

0101000
+158 1 -156 3 *
Wi

0101100
+157 1 +161 0 -155 3 -154 0 *
Fa
0  0 9 0

0111000
+153 0 *
Ve
1e-07
2.78151267313672 -2.78151267313672 0
0 0

0101101
*
Ed
 1e-07 1 1 0
1  11 0 0 1.02688948118169
4 C0 13 2 3 2
0

0101000
+151 0 -158 0 *
Ve
1e-07
2.78151267313672 -2.78151267313672 0
0 0

0101101
*
Ed
 1e-07 1 1 0
1  12 0 0 1.02688948118169
4 C0 14 4 5 4
0

0101000
+149 0 -156 0 *
Ed
 1e-07 1 1 0
1  13 0 0 18
0

0101000
+151 1 -149 3 *
Wi

0101100
+150 1 +154 0 -148 3 -147 0 *
Fa
0  0 12 0

0111000
+146 0 *
Ve
1e-07
1.9668264731313 -3.40664338113491 0
0 0

0101101
*
Ed
 1e-07 1 1 0
1  14 0 0 1.02688948118169
4 C0 16 2 3 2
0

0101000
+144 0 -151 0 *
Ve
1e-07
1.9668264731313 -3.40664338113491 0
0 0

0101101
*
Ed
 1e-07 1 1 0
1  15 0 0 1.02688948118169
4 C0 17 4 5 4
0

0101000
+142 0 -149 0 *
Ed
 1e-07 1 1 0
1  16 0 0 18
0

0101000
+144 1 -142 3 *
Wi

0101100
+143 1 +147 0 -141 3 -140 0 *
Fa
0  0 15 0

0111000
+139 0 *
Ve
1e-07
1.0181042993164 -3.79961697245313 0
0 0

0101101
*
Ed
 1e-07 1 1 0
1  17 0 0 1.02688948118169
4 C0 19 2 3 2
0

0101000
+137 0 -144 0 *
Ve
1e-07
1.0181042993164 -3.79961697245313 0
0 0

0101101
*
Ed
 1e-07 1 1 0
1  18 0 0 1.02688948118169
4 C0 20 4 5 4
0

0101000
+135 0 -142 0 *
Ed
 1e-07 1 1 0
1  19 0 0 18
0

0101000
+137 1 -135 3 *
Wi

0101100
+136 1 +140 0 -134 3 -133 0 *
Fa
0  0 18 0

0111000
+132 0 *
Ve
1e-07
-7.22600323439556e-16 -3.9336529462626 0
0 0

0101101
*
Ed
 1e-07 1 1 0
1  20 0 0 1.02688948118169
4 C0 22 2 3 2
0

0101000
+130 0 -137 0 *
Ve
1e-07
-7.22600323439556e-16 -3.9336529462626 0
0 0

0101101
*
Ed
 1e-07 1 1 0
1  21 0 0 1.02688948118169
4 C0 23 4 5 4
0

0101000
+128 0 -135 0 *
Ed
 1e-07 1 1 0
1  22 0 0 18
0

0101000
+130 1 -128 3 *
Wi

0101100
+129 1 +133 0 -127 3 -126 0 *
Fa
0  0 21 0

0111000
+125 0 *
Ve
1e-07
-1.0181042993164 -3.79961697245313 0
0 0

0101101
*
Ed
 1e-07 1 1 0
1  23 0 0 1.02688948118169
4 C0 25 2 3 2
0

0101000
+123 0 -130 0 *
Ve
1e-07
-1.0181042993164 -3.79961697245313 0
0 0

0101101
*
Ed
 1e-07 1 1 0
1  24 0 0 1.02688948118169
4 C0 26 4 5 4
0

0101000
+121 0 -128 0 *
Ed
 1e-07 1 1 0
1  25 0 0 18
0

0101000
+123 1 -121 3 *
Wi

0101100
+122 1 +126 0 -120 3 -119 0 *
Fa
0  0 24 0

0111000
+118 0 *
Ve
1e-07
-1.9668264731313 -3.40664338113491 0
0 0

0101101
*
Ed
 1e-07 1 1 0
1  26 0 0 1.02688948118169
4 C0 28 2 3 2
0

0101000
+116 0 -123 0 *
Ve
1e-07
-1.9668264731313 -3.40664338113491 0
0 0

0101101
*
Ed
 1e-07 1 1 0
1  27 0 0 1.02688948118169
4 C0 29 4 5 4
0

0101000
+114 0 -121 0 *
Ed
 1e-07 1 1 0
1  28 0 0 18
0

0101000
+116 1 -114 3 *
Wi

0101100
+115 1 +119 0 -113 3 -112 0 *
Fa
0  0 27 0

0111000
+111 0 *
Ve
1e-07
-2.78151267313672 -2.78151267313672 0
0 0

0101101
*
Ed
 1e-07 1 1 0
1  29 0 0 1.02688948118169
4 C0 31 2 3 2
0

0101000
+109 0 -116 0 *
Ve
1e-07
-2.78151267313672 -2.78151267313672 0
0 0

0101101
*
Ed
 1e-07 1 1 0
1  30 0 0 1.02688948118169
4 C0 32 4 5 4
0

0101000
+107 0 -114 0 *
Ed
 1e-07 1 1 0
1  31 0 0 18
0

0101000
+109 1 -107 3 *
Wi

0101100
+108 1 +112 0 -106 3 -105 0 *
Fa
0  0 30 0

0111000
+104 0 *
Ve
1e-07
-3.40664338113491 -1.9668264731313 0
0 0

0101101
*
Ed
 1e-07 1 1 0
1  32 0 0 1.02688948118169
4 C0 34 2 3 2
0

0101000
+102 0 -109 0 *
Ve
1e-07
-3.40664338113491 -1.9668264731313 0
0 0

0101101
*
Ed
 1e-07 1 1 0
1  33 0 0 1.02688948118169
4 C0 35 4 5 4
0

0101000
+100 0 -107 0 *
Ed
 1e-07 1 1 0
1  34 0 0 18
0

0101000
+102 1 -100 3 *
Wi

0101100
+101 1 +105 0 -99 3 -98 0 *
Fa
0  0 33 0

0111000
+97 0 *
Ve
1e-07
-3.79961697245313 -1.0181042993164 0
0 0

0101101
*
Ed
 1e-07 1 1 0
1  35 0 0 1.02688948118169
4 C0 37 2 3 2
0

0101000
+95 0 -102 0 *
Ve
1e-07
-3.79961697245313 -1.0181042993164 0
0 0

0101101
*
Ed
 1e-07 1 1 0
1  36 0 0 1.02688948118169
4 C0 38 4 5 4
0

0101000
+93 0 -100 0 *
Ed
 1e-07 1 1 0
1  37 0 0 18
0

0101000
+95 1 -93 3 *
Wi

0101100
+94 1 +98 0 -92 3 -91 0 *
Fa
0  0 36 0

0111000
+90 0 *
Ve
1e-07
-3.9336529462626 4.81733548959704e-16 0
0 0

0101101
*
Ed
 1e-07 1 1 0
1  38 0 0 1.02688948118169
4 C0 40 2 3 2
0

0101000
+88 0 -95 0 *
Ve
1e-07
-3.9336529462626 4.81733548959704e-16 0
0 0

0101101
*
Ed
 1e-07 1 1 0
1  39 0 0 1.02688948118169
4 C0 41 4 5 4
0

0101000
+86 0 -93 0 *
Ed
 1e-07 1 1 0
1  40 0 0 18
0

0101000
+88 1 -86 3 *
Wi

0101100
+87 1 +91 0 -85 3 -84 0 *
Fa
0  0 39 0

0111000
+83 0 *
Ve
1e-07
-3.79961697245313 1.0181042993164 0
0 0

0101101
*
Ed
 1e-07 1 1 0
1  41 0 0 1.02688948118169
4 C0 43 2 3 2
0

0101000
+81 0 -88 0 *
Ve
1e-07
-3.79961697245313 1.0181042993164 0
0 0

0101101
*
Ed
 1e-07 1 1 0
1  42 0 0 1.02688948118169
4 C0 44 4 5 4
0

0101000
+79 0 -86 0 *
Ed
 1e-07 1 1 0
1  43 0 0 18
0

0101000
+81 1 -79 3 *
Wi

0101100
+80 1 +84 0 -78 3 -77 0 *
Fa
0  0 42 0

0111000
+76 0 *
Ve
1e-07
-3.40664338113491 1.9668264731313 0
0 0

0101101
*
Ed
 1e-07 1 1 0
1  44 0 0 1.02688948118169
4 C0 46 2 3 2
0

0101000
+74 0 -81 0 *
Ve
1e-07
-3.40664338113491 1.9668264731313 0
0 0

0101101
*
Ed
 1e-07 1 1 0
1  45 0 0 1.02688948118169
4 C0 47 4 5 4
0

0101000
+72 0 -79 0 *
Ed
 1e-07 1 1 0
1  46 0 0 18
0

0101000
+74 1 -72 3 *
Wi

0101100
+73 1 +77 0 -71 3 -70 0 *
Fa
0  0 45 0

0111000
+69 0 *
Ve
1e-07
-2.78151267313672 2.78151267313672 0
0 0

0101101
*
Ed
 1e-07 1 1 0
1  47 0 0 1.02688948118169
4 C0 49 2 3 2
0

0101000
+67 0 -74 0 *
Ve
1e-07
-2.78151267313672 2.78151267313672 0
0 0

0101101
*
Ed
 1e-07 1 1 0
1  48 0 0 1.02688948118169
4 C0 50 4 5 4
0

0101000
+65 0 -72 0 *
Ed
 1e-07 1 1 0
1  49 0 0 18
0

0101000
+67 1 -65 3 *
Wi

0101100
+66 1 +70 0 -64 3 -63 0 *
Fa
0  0 48 0

0111000
+62 0 *
Ve
1e-07
-1.9668264731313 3.40664338113491 0
0 0

0101101
*
Ed
 1e-07 1 1 0
1  50 0 0 1.02688948118169
4 C0 52 2 3 2
0

0101000
+60 0 -67 0 *
Ve
1e-07
-1.9668264731313 3.40664338113491 0
0 0

0101101
*
Ed
 1e-07 1 1 0
1  51 0 0 1.02688948118169
4 C0 53 4 5 4
0

0101000
+58 0 -65 0 *
Ed
 1e-07 1 1 0
1  52 0 0 18
0

0101000
+60 1 -58 3 *
Wi

0101100
+59 1 +63 0 -57 3 -56 0 *
Fa
0  0 51 0

0111000
+55 0 *
Ve
1e-07
-1.0181042993164 3.79961697245313 0
0 0

0101101
*
Ed
 1e-07 1 1 0
1  53 0 0 1.02688948118169
4 C0 55 2 3 2
0

0101000
+53 0 -60 0 *
Ve
1e-07
-1.0181042993164 3.79961697245313 0
0 0

0101101
*
Ed
 1e-07 1 1 0
1  54 0 0 1.02688948118169
4 C0 56 4 5 4
0

0101000
+51 0 -58 0 *
Ed
 1e-07 1 1 0
1  55 0 0 18
0

0101000
+53 1 -51 3 *
Wi

0101100
+52 1 +56 0 -50 3 -49 0 *
Fa
0  0 54 0

0111000
+48 0 *
Ve
1e-07
2.40866774479852e-16 3.9336529462626 0
0 0

0101101
*
Ed
 1e-07 1 1 0
1  56 0 0 1.02688948118169
4 C0 58 2 3 2
0

0101000
+46 0 -53 0 *
Ve
1e-07
2.40866774479852e-16 3.9336529462626 0
0 0

0101101
*
Ed
 1e-07 1 1 0
1  57 0 0 1.02688948118169
4 C0 59 4 5 4
0

0101000
+44 0 -51 0 *
Ed
 1e-07 1 1 0
1  58 0 0 18
0

0101000
+46 1 -44 3 *
Wi

0101100
+45 1 +49 0 -43 3 -42 0 *
Fa
0  0 57 0

0111000
+41 0 *
Ve
1e-07
1.0181042993164 3.79961697245313 0
0 0

0101101
*
Ed
 1e-07 1 1 0
1  59 0 0 1.02688948118169
4 C0 61 2 3 2
0

0101000
+39 0 -46 0 *
Ve
1e-07
1.0181042993164 3.79961697245313 0
0 0

0101101
*
Ed
 1e-07 1 1 0
1  60 0 0 1.02688948118169
4 C0 62 4 5 4
0

0101000
+37 0 -44 0 *
Ed
 1e-07 1 1 0
1  61 0 0 18
0

0101000
+39 1 -37 3 *
Wi

0101100
+38 1 +42 0 -36 3 -35 0 *
Fa
0  0 60 0

0111000
+34 0 *
Ve
1e-07
1.9668264731313 3.40664338113491 0
0 0

0101101
*
Ed
 1e-07 1 1 0
1  62 0 0 1.02688948118169
4 C0 64 2 3 2
0

0101000
+32 0 -39 0 *
Ve
1e-07
1.9668264731313 3.40664338113491 0
0 0

0101101
*
Ed
 1e-07 1 1 0
1  63 0 0 1.02688948118169
4 C0 65 4 5 4
0

0101000
+30 0 -37 0 *
Ed
 1e-07 1 1 0
1  64 0 0 18
0

0101000
+32 1 -30 3 *
Wi

0101100
+31 1 +35 0 -29 3 -28 0 *
Fa
0  0 63 0

0111000
+27 0 *
Ve
1e-07
2.78151267313672 2.78151267313672 0
0 0

0101101
*
Ed
 1e-07 1 1 0
1  65 0 0 1.02688948118169
4 C0 67 2 3 2
0

0101000
+25 0 -32 0 *
Ve
1e-07
2.78151267313672 2.78151267313672 0
0 0

0101101
*
Ed
 1e-07 1 1 0
1  66 0 0 1.02688948118169
4 C0 68 4 5 4
0

0101000
+23 0 -30 0 *
Ed
 1e-07 1 1 0
1  67 0 0 18
0

0101000
+25 1 -23 3 *
Wi

0101100
+24 1 +28 0 -22 3 -21 0 *
Fa
0  0 66 0

0111000
+20 0 *
Ve
1e-07
3.40664338113491 1.9668264731313 0
0 0

0101101
*
Ed
 1e-07 1 1 0
1  68 0 0 1.02688948118169
4 C0 70 2 3 2
0

0101000
+18 0 -25 0 *
Ve
1e-07
3.40664338113491 1.9668264731313 0
0 0

0101101
*
Ed
 1e-07 1 1 0
1  69 0 0 1.02688948118169
4 C0 71 4 5 4
0

0101000
+16 0 -23 0 *
Ed
 1e-07 1 1 0
1  70 0 0 18
0

0101000
+18 1 -16 3 *
Wi

0101100
+17 1 +21 0 -15 3 -14 0 *
Fa
0  0 69 0

0111000
+13 0 *
Ed
 1e-07 1 1 0
1  71 0 0 1.02688948118169
4 C0 72 4 5 4
0

0101000
+172 0 -16 0 *
Wi

0101100
+169 3 +11 3 +15 3 +22 3 +29 3 +36 3 +43 3 +50 3 +57 3 +64 3 
+71 3 +78 3 +85 3 +92 3 +99 3 +106 3 +113 3 +120 3 +127 3 +134 3 
+141 3 +148 3 +155 3 +162 3 *
Fa
0  1e-07 5 0

0101000
-10 0 *
Ed
 1e-07 1 1 0
1  72 0 0 1.02688948118169
4 C0 74 2 3 2
0

0101000
+174 0 -18 0 *
Wi

0101100
+8 1 +14 0 -11 3 -171 0 *
Fa
0  0 73 0

0111000
+7 0 *
Wi

0101100
+173 0 +8 0 +17 0 +24 0 +31 0 +38 0 +45 0 +52 0 +59 0 +66 0 
+73 0 +80 0 +87 0 +94 0 +101 0 +108 0 +115 0 +122 0 +129 0 +136 0 
+143 0 +150 0 +157 0 +164 0 *
Fa
0  1e-07 3 0

0101000
-5 1 *
Sh

0101100
+166 0 +159 0 +152 0 +145 0 +138 0 +131 0 +124 0 +117 0 +110 0 +103 0 
+96 0 +89 0 +82 0 +75 0 +68 0 +61 0 +54 0 +47 0 +40 0 +33 0 
+26 0 +19 0 +12 0 -9 0 +6 0 +4 0 *
So

0100000
+3 0 *
Co

1100000
+2 0 *

+1 0 