DBRep_DrawableShape

CASCADE Topology V3, (c) Open Cascade
Locations 67
1
              1               0               0              -0 
              0               1               0              -0 
              0               0               1           -2.75 
1
              1               0               0               0 
              0               1               0         366.081 
              0               0               1           11.55 
2  1 1 2 1 0
1
              1               0               0              -0 
              0               1               0              -0 
              0               0               1           -2.75 
1
              1               0               0               0 
              0               1               0         366.081 
              0               0               1           11.55 
2  4 1 5 1 0
2  1 1 2 1 5 -1 4 -1 0
1
              1               0               0              -0 
              0               1               0              -0 
              0               0               1              -3 
1
              1               0               0               0 
              0               1               0         366.081 
              0               0               1           -10.7 
2  8 1 9 1 0
1
              1               0               0              -0 
              0               1               0              -0 
              0               0               1              -3 
1
              1               0               0               0 
              0               1               0         366.081 
              0               0               1           -10.7 
2  11 1 12 1 0
2  8 1 9 1 12 -1 11 -1 0
1
              1               0               0               0 
              0               1               0         366.081 
              0               0               1           -16.2 
1
              1               0               0              -0 
              0               1               0              -0 
              0               0               1            -7.7 
1
0.974370064785235 -0.224951054343865               0               0 
0.224951054343865 0.974370064785235              -0               0 
              0               0               1               0 
1
              1               0               0               0 
              0               1               0         366.081 
              0               0               1               0 
2  17 1 18 1 0
1
              1              -0               0              -0 
              0               0              -1              -0 
              0               1               0               0 
1
              1               0               0              -0 
              0               1               0 -3.86755314090318 
              0               0               1               0 
2  20 1 21 1 0
2  20 -1 0
2  21 -1 20 -1 0
1
              1               0               0               0 
              0               1               0 3.86755314090318 
              0               0               1              -0 
2  25 -1 20 -1 0
2  20 1 25 1 0
1
-0.224951054343865 -0.974370064785235               0               0 
0.974370064785235 -0.224951054343865              -0               0 
              0               0               1               0 
1
              1               0               0               0 
              0               1               0         366.081 
              0               0               1               0 
2  28 1 29 1 0
1
              1              -0               0              -0 
              0               0              -1              -0 
              0               1               0               0 
1
              1               0               0              -0 
              0               1               0 -3.86755314090318 
              0               0               1               0 
2  31 1 32 1 0
2  31 -1 0
2  32 -1 31 -1 0
1
              1               0               0               0 
              0               1               0 3.86755314090318 
              0               0               1              -0 
2  36 -1 31 -1 0
2  31 1 36 1 0
1
-0.974370064785235 0.224951054343865               0               0 
-0.224951054343865 -0.974370064785235               0               0 
              0              -0               1               0 
1
              1               0               0               0 
              0               1               0         366.081 
              0               0               1               0 
2  39 1 40 1 0
1
              1              -0               0              -0 
              0               0              -1              -0 
              0               1               0               0 
1
              1               0               0              -0 
              0               1               0 -3.86755314090318 
              0               0               1               0 
2  42 1 43 1 0
2  42 -1 0
2  43 -1 42 -1 0
1
              1               0               0               0 
              0               1               0 3.86755314090318 
              0               0               1              -0 
2  47 -1 42 -1 0
2  42 1 47 1 0
1
0.224951054343865 0.974370064785235               0               0 
-0.974370064785235 0.224951054343865               0               0 
              0              -0               1               0 
1
              1               0               0               0 
              0               1               0         366.081 
              0               0               1               0 
2  50 1 51 1 0
1
              1              -0               0              -0 
              0               0              -1              -0 
              0               1               0               0 
1
              1               0               0              -0 
              0               1               0 -3.86755314090318 
              0               0               1               0 
2  53 1 54 1 0
2  53 -1 0
2  54 -1 53 -1 0
1
              1               0               0               0 
              0               1               0 3.86755314090318 
              0               0               1              -0 
2  58 -1 53 -1 0
2  53 1 58 1 0
1
              1               0               0              -0 
              0               1               0              -0 
              0               0               1            -2.7 
1
              1               0               0               0 
              0               1               0         366.081 
              0               0               1              17 
2  61 1 62 1 0
1
              1               0               0              -0 
              0               1               0              -0 
              0               0               1            -2.7 
1
              1               0               0               0 
              0               1               0         366.081 
              0               0               1              17 
2  64 1 65 1 0
2  61 1 62 1 65 -1 64 -1 0
Curve2ds 168
1 0 5.5 1 0 
2 0 0 1 0 -0 1 40
1 6.2831853071795862 -0 0 1 
1 0 -0 0 1 
1 0 0 1 0 
2 0 0 1 0 -0 1 40
1 0 5.5 1 0 
2 0 0 1 0 -0 1 36.5
2 0 0 1 0 -0 1 36.5
1 0 0 1 0 
2 0 0 1 0 -0 1 36.5
2 0 0 1 0 -0 1 36.5
1 6.2831853071795862 -0 0 1 
1 0 -0 0 1 
1 0 6 1 0 
2 0 0 1 0 -0 1 31
1 6.2831853071795862 -0 0 1 
1 0 -0 0 1 
1 0 0 1 0 
2 0 0 1 0 -0 1 31
1 0 6 1 0 
2 0 0 1 0 -0 1 20
2 0 0 1 0 -0 1 20
1 0 0 1 0 
2 0 0 1 0 -0 1 20
2 0 0 1 0 -0 1 20
1 6.2831853071795862 -0 0 1 
1 0 -0 0 1 
1 0 15.400000000000002 1 0 
2 0 0 1 0 -0 1 30
1 6.2831853071795862 -0 0 1 
1 0 -0 0 1 
1 0 0 1 0 
2 0 0 1 0 -0 1 30
1 -0 0 1 0 
1 0 -3.8675531409031785 1 0 
1 0 0 1 0 
1 0 -3.8675531409031785 1 0 
1 -7.9639713291704375 13.692064532956229 0.26311740579210879 -0.96476382123773219 
1 0 0 1 0 
1 0 -3.8675531409031785 1 0 
1 0 0 1 0 
1 0 -3.8675531409031785 1 0 
1 -2.4639713291704375 9.1920645329562287 -0.77395729920332101 0.63323779025726268 
1 0 0 1 0 
1 0 -3.8675531409031785 1 0 
1 0 0 1 0 
1 0 -3.8675531409031785 1 0 
1 6.5360286708295625 -7.3079354670437713 -0.47885213068057331 0.87789557291438436 
1 0 0 1 0 
1 0 -3.8675531409031785 1 0 
1 0 0 1 0 
1 0 -3.8675531409031785 1 0 
1 8.5360286708295625 -12.807935467043771 -0.34174306308670443 0.93979342348843709 
1 0 0 1 0 
1 0 -3.8675531409031785 1 0 
1 -0 0 1 0 
1 0 -3.8675531409031785 1 0 
1 3.0360286708295625 -11.307935467043771 0.96476382123773219 -0.26311740579210879 
1 0 0 1 0 
1 0 -3.8675531409031785 1 0 
1 -0 0 1 0 
1 0 -3.8675531409031785 1 0 
1 -6.4639713291704375 8.1920645329562287 0.4379694232796954 -0.8989898688372695 
1 -0 0 1 0 
1 0 -3.8675531409031785 1 0 
1 0 0 1 0 
1 0 -3.8675531409031785 1 0 
1 -7.9639713291704375 13.692064532956229 0.26311740579210879 -0.96476382123773219 
1 0 0 1 0 
1 0 -3.8675531409031785 1 0 
1 0 0 1 0 
1 0 -3.8675531409031785 1 0 
1 -2.4639713291704375 9.1920645329562287 -0.77395729920332101 0.63323779025726268 
1 0 0 1 0 
1 0 -3.8675531409031785 1 0 
1 0 0 1 0 
1 0 -3.8675531409031785 1 0 
1 6.5360286708295625 -7.3079354670437713 -0.47885213068057331 0.87789557291438436 
1 0 0 1 0 
1 0 -3.8675531409031785 1 0 
1 0 0 1 0 
1 0 -3.8675531409031785 1 0 
1 8.5360286708295625 -12.807935467043771 -0.34174306308670443 0.93979342348843709 
1 0 0 1 0 
1 0 -3.8675531409031785 1 0 
1 -0 0 1 0 
1 0 -3.8675531409031785 1 0 
1 3.0360286708295625 -11.307935467043771 0.96476382123773219 -0.26311740579210879 
1 0 0 1 0 
1 0 -3.8675531409031785 1 0 
1 -0 0 1 0 
1 0 -3.8675531409031785 1 0 
1 -6.4639713291704375 8.1920645329562287 0.4379694232796954 -0.8989898688372695 
1 -0 0 1 0 
1 0 -3.8675531409031785 1 0 
1 0 0 1 0 
1 0 -3.8675531409031785 1 0 
1 -7.9639713291704375 13.692064532956229 0.26311740579210879 -0.96476382123773219 
1 0 0 1 0 
1 0 -3.8675531409031785 1 0 
1 0 0 1 0 
1 0 -3.8675531409031785 1 0 
1 -2.4639713291704375 9.1920645329562287 -0.77395729920332101 0.63323779025726268 
1 0 0 1 0 
1 0 -3.8675531409031785 1 0 
1 0 0 1 0 
1 0 -3.8675531409031785 1 0 
1 6.5360286708295625 -7.3079354670437713 -0.47885213068057331 0.87789557291438436 
1 0 0 1 0 
1 0 -3.8675531409031785 1 0 
1 0 0 1 0 
1 0 -3.8675531409031785 1 0 
1 8.5360286708295625 -12.807935467043771 -0.34174306308670443 0.93979342348843709 
1 0 0 1 0 
1 0 -3.8675531409031785 1 0 
1 -0 0 1 0 
1 0 -3.8675531409031785 1 0 
1 3.0360286708295625 -11.307935467043771 0.96476382123773219 -0.26311740579210879 
1 0 0 1 0 
1 0 -3.8675531409031785 1 0 
1 -0 0 1 0 
1 0 -3.8675531409031785 1 0 
1 -6.4639713291704375 8.1920645329562287 0.4379694232796954 -0.8989898688372695 
1 -0 0 1 0 
1 0 -3.8675531409031785 1 0 
1 0 0 1 0 
1 0 -3.8675531409031785 1 0 
1 -7.9639713291704375 13.692064532956229 0.26311740579210879 -0.96476382123773219 
1 0 0 1 0 
1 0 -3.8675531409031785 1 0 
1 0 0 1 0 
1 0 -3.8675531409031785 1 0 
1 -2.4639713291704375 9.1920645329562287 -0.77395729920332101 0.63323779025726268 
1 0 0 1 0 
1 0 -3.8675531409031785 1 0 
1 0 0 1 0 
1 0 -3.8675531409031785 1 0 
1 6.5360286708295625 -7.3079354670437713 -0.47885213068057331 0.87789557291438436 
1 0 0 1 0 
1 0 -3.8675531409031785 1 0 
1 0 0 1 0 
1 0 -3.8675531409031785 1 0 
1 8.5360286708295625 -12.807935467043771 -0.34174306308670443 0.93979342348843709 
1 0 0 1 0 
1 0 -3.8675531409031785 1 0 
1 -0 0 1 0 
1 0 -3.8675531409031785 1 0 
1 3.0360286708295625 -11.307935467043771 0.96476382123773219 -0.26311740579210879 
1 0 0 1 0 
1 0 -3.8675531409031785 1 0 
1 -0 0 1 0 
1 0 -3.8675531409031785 1 0 
1 -6.4639713291704375 8.1920645329562287 0.4379694232796954 -0.8989898688372695 
1 0 5.4000000000000021 1 0 
2 0 0 1 0 -0 1 49
1 6.2831853071795862 -0 0 1 
1 0 -0 0 1 
1 0 0 1 0 
2 0 0 1 0 -0 1 49
1 0 5.4000000000000021 1 0 
2 0 0 1 0 -0 1 39
2 0 0 1 0 -0 1 39
1 0 0 1 0 
2 0 0 1 0 -0 1 39
2 0 0 1 0 -0 1 39
1 6.2831853071795862 -0 0 1 
1 0 -0 0 1 
Curves 69
2 0 0 5.5 0 0 1 1 0 -0 -0 1 0 40
1 40 -9.7971743931788261e-15 0 0 0 1 
2 0 0 0 0 0 1 1 0 -0 -0 1 0 40
2 0 0 5.5 0 0 1 1 0 -0 -0 1 0 36.5
2 0 0 0 0 0 1 1 0 -0 -0 1 0 36.5
1 36.5 -8.9399216337756784e-15 0 0 0 1 
2 0 0 6 0 0 1 1 0 -0 -0 1 0 31
1 31 -7.5928101547135902e-15 0 0 0 1 
2 0 0 0 0 0 1 1 0 -0 -0 1 0 31
2 0 0 6 0 0 1 1 0 -0 -0 1 0 20
2 0 0 0 0 0 1 1 0 -0 -0 1 0 20
1 20 -4.898587196589413e-15 0 0 0 1 
2 0 0 15.400000000000002 0 0 1 1 0 -0 -0 1 0 30
1 30 -7.3478807948841199e-15 0 0 0 1 
2 0 0 0 0 0 1 1 0 -0 -0 1 0 30
1 37 11.800000000000001 0 -0.26311740579210879 -0.96476382123773219 0 
8 0 7.735106281806357
1 35.5 -3.8675531409031785 6.3000000000000007 0 1 0 
8 0 7.735106281806357
1 37 3.8675531409031785 11.800000000000001 0 -1 0 
1 31.5 7.3000000000000007 0 0.77395729920332101 0.63323779025726268 0 
8 0 7.735106281806357
1 31.5 3.8675531409031785 7.3000000000000007 0 -1 0 
1 22.5 -9.1999999999999993 0 0.47885213068057331 0.87789557291438436 0 
8 0 7.735106281806357
1 22.5 3.8675531409031785 -9.1999999999999993 0 -1 0 
8 0 7.735106281806357
1 20.5 -3.8675531409031785 -14.699999999999999 0 1 0 
1 20.5 -14.699999999999999 0 0.34174306308670438 0.93979342348843697 0 
8 0 7.735106281806357
1 26 -3.8675531409031785 -13.199999999999999 0 1 0 
1 26 -13.199999999999999 0 -0.96476382123773219 -0.26311740579210879 0 
1 35.5 6.3000000000000007 0 -0.43796942327969535 -0.89898986883726939 0 
1 37 11.800000000000001 0 -0.26311740579210879 -0.96476382123773219 0 
8 0 7.735106281806357
1 35.5 -3.8675531409031785 6.3000000000000007 0 1 0 
8 0 7.735106281806357
1 37 3.8675531409031785 11.800000000000001 0 -1 0 
1 31.5 7.3000000000000007 0 0.77395729920332101 0.63323779025726268 0 
8 0 7.735106281806357
1 31.5 3.8675531409031785 7.3000000000000007 0 -1 0 
1 22.5 -9.1999999999999993 0 0.47885213068057331 0.87789557291438436 0 
8 0 7.735106281806357
1 22.5 3.8675531409031785 -9.1999999999999993 0 -1 0 
8 0 7.735106281806357
1 20.5 -3.8675531409031785 -14.699999999999999 0 1 0 
1 20.5 -14.699999999999999 0 0.34174306308670438 0.93979342348843697 0 
8 0 7.735106281806357
1 26 -3.8675531409031785 -13.199999999999999 0 1 0 
1 26 -13.199999999999999 0 -0.96476382123773219 -0.26311740579210879 0 
1 35.5 6.3000000000000007 0 -0.43796942327969535 -0.89898986883726939 0 
1 37 11.800000000000001 0 -0.26311740579210879 -0.96476382123773219 0 
8 0 7.735106281806357
1 35.5 -3.8675531409031785 6.3000000000000007 0 1 0 
8 0 7.735106281806357
1 37 3.8675531409031785 11.800000000000001 0 -1 0 
1 31.5 7.3000000000000007 0 0.77395729920332101 0.63323779025726268 0 
8 0 7.735106281806357
1 31.5 3.8675531409031785 7.3000000000000007 0 -1 0 
1 22.5 -9.1999999999999993 0 0.47885213068057331 0.87789557291438436 0 
8 0 7.735106281806357
1 22.5 3.8675531409031785 -9.1999999999999993 0 -1 0 
8 0 7.735106281806357
1 20.5 -3.8675531409031785 -14.699999999999999 0 1 0 
1 20.5 -14.699999999999999 0 0.34174306308670438 0.93979342348843697 0 
8 0 7.735106281806357
1 26 -3.8675531409031785 -13.199999999999999 0 1 0 
1 26 -13.199999999999999 0 -0.96476382123773219 -0.26311740579210879 0 
1 35.5 6.3000000000000007 0 -0.43796942327969535 -0.89898986883726939 0 
1 37 11.800000000000001 0 -0.26311740579210879 -0.96476382123773219 0 
8 0 7.735106281806357
1 35.5 -3.8675531409031785 6.3000000000000007 0 1 0 
8 0 7.735106281806357
1 37 3.8675531409031785 11.800000000000001 0 -1 0 
1 31.5 7.3000000000000007 0 0.77395729920332101 0.63323779025726268 0 
8 0 7.735106281806357
1 31.5 3.8675531409031785 7.3000000000000007 0 -1 0 
1 22.5 -9.1999999999999993 0 0.47885213068057331 0.87789557291438436 0 
8 0 7.735106281806357
1 22.5 3.8675531409031785 -9.1999999999999993 0 -1 0 
8 0 7.735106281806357
1 20.5 -3.8675531409031785 -14.699999999999999 0 1 0 
1 20.5 -14.699999999999999 0 0.34174306308670438 0.93979342348843697 0 
8 0 7.735106281806357
1 26 -3.8675531409031785 -13.199999999999999 0 1 0 
1 26 -13.199999999999999 0 -0.96476382123773219 -0.26311740579210879 0 
1 35.5 6.3000000000000007 0 -0.43796942327969535 -0.89898986883726939 0 
2 0 0 5.4000000000000021 0 0 1 1 0 -0 -0 1 0 49
1 49 -1.2001538631644062e-14 0 0 0 1 
2 0 0 0 0 0 1 1 0 -0 -0 1 0 49
2 0 0 5.4000000000000021 0 0 1 1 0 -0 -0 1 0 39
2 0 0 0 0 0 1 1 0 -0 -0 1 0 39
1 39 -9.5522450333493558e-15 0 0 0 1 
Polygon3D 0
PolygonOnTriangulations 0
Surfaces 97
2 0 0 0 0 0 1 1 0 -0 -0 1 0 40
1 0 0 5.5 0 0 1 1 0 -0 -0 1 0 
1 0 0 0 0 0 1 1 0 -0 -0 1 0 
2 0 0 0 0 0 1 1 0 -0 -0 1 0 36.5
1 0 0 5.5 0 0 1 1 0 -0 -0 1 0 
1 0 0 0 0 0 1 1 0 -0 -0 1 0 
2 0 0 0 0 0 1 1 0 -0 -0 1 0 31
1 0 0 6 0 0 1 1 0 -0 -0 1 0 
1 0 0 0 0 0 1 1 0 -0 -0 1 0 
2 0 0 0 0 0 1 1 0 -0 -0 1 0 20
1 0 0 6 0 0 1 1 0 -0 -0 1 0 
1 0 0 0 0 0 1 1 0 -0 -0 1 0 
2 0 0 0 0 0 1 1 0 -0 -0 1 0 30
1 0 0 15.400000000000002 0 0 1 1 0 -0 -0 1 0 
1 0 0 0 0 0 1 1 0 -0 -0 1 0 
1 37 0 11.800000000000001 0.96476382123773219 -0 -0.26311740579210879 -0.26311740579210879 -0 -0.96476382123773219 0 1 -0 
1 37 0 11.800000000000001 0.96476382123773219 -0 -0.26311740579210879 -0.26311740579210879 -0 -0.96476382123773219 0 1 -0 
1 37 0 11.800000000000001 -0.96476382123773219 0 0.26311740579210879 -0.26311740579210879 0 -0.96476382123773219 -0 -1 0 
1 29.036028670829563 -1.8920645329562276 0 -0 -0 -1 -1 0 0 0 1 -0 
1 31.5 0 7.3000000000000007 -0.63323779025726268 0 0.77395729920332101 0.77395729920332101 0 0.63323779025726268 0 1 -0 
1 31.5 0 7.3000000000000007 0.63323779025726268 -0 -0.77395729920332101 0.77395729920332101 0 0.63323779025726268 0 -1 0 
1 31.5 0 7.3000000000000007 -0.63323779025726268 0 0.77395729920332101 0.77395729920332101 0 0.63323779025726268 0 1 -0 
1 22.5 0 -9.1999999999999993 -0.87789557291438436 0 0.47885213068057331 0.47885213068057331 0 0.87789557291438436 0 1 -0 
1 22.5 0 -9.1999999999999993 0.87789557291438436 -0 -0.47885213068057331 0.47885213068057331 0 0.87789557291438436 0 -1 0 
1 22.5 0 -9.1999999999999993 -0.87789557291438436 0 0.47885213068057331 0.47885213068057331 0 0.87789557291438436 0 1 -0 
1 20.5 0 -14.699999999999999 -0.93979342348843709 0 0.34174306308670443 0.34174306308670443 0 0.93979342348843709 0 1 -0 
1 20.5 0 -14.699999999999999 0.93979342348843709 -0 -0.34174306308670443 0.34174306308670443 0 0.93979342348843709 0 -1 0 
1 20.5 0 -14.699999999999999 -0.93979342348843709 0 0.34174306308670443 0.34174306308670443 0 0.93979342348843709 0 1 -0 
1 26 0 -13.199999999999999 0.26311740579210879 -0 -0.96476382123773219 -0.96476382123773219 -0 -0.26311740579210879 0 1 -0 
1 26 0 -13.199999999999999 -0.26311740579210879 0 0.96476382123773219 -0.96476382123773219 0 -0.26311740579210879 -0 -1 0 
1 26 0 -13.199999999999999 0.26311740579210879 -0 -0.96476382123773219 -0.96476382123773219 -0 -0.26311740579210879 0 1 -0 
1 35.5 0 6.3000000000000007 -0.8989898688372695 0 0.4379694232796954 -0.4379694232796954 0 -0.8989898688372695 -0 -1 0 
1 35.5 0 6.3000000000000007 0.8989898688372695 -0 -0.4379694232796954 -0.4379694232796954 -0 -0.8989898688372695 0 1 -0 
1 35.5 0 6.3000000000000007 0.8989898688372695 -0 -0.4379694232796954 -0.4379694232796954 -0 -0.8989898688372695 0 1 -0 
1 37 0 11.800000000000001 0.96476382123773219 -0 -0.26311740579210879 -0.26311740579210879 -0 -0.96476382123773219 0 1 -0 
1 37 0 11.800000000000001 0.96476382123773219 -0 -0.26311740579210879 -0.26311740579210879 -0 -0.96476382123773219 0 1 -0 
1 37 0 11.800000000000001 -0.96476382123773219 0 0.26311740579210879 -0.26311740579210879 0 -0.96476382123773219 -0 -1 0 
1 29.036028670829563 -1.8920645329562276 0 -0 -0 -1 -1 0 0 0 1 -0 
1 31.5 0 7.3000000000000007 -0.63323779025726268 0 0.77395729920332101 0.77395729920332101 0 0.63323779025726268 0 1 -0 
1 31.5 0 7.3000000000000007 0.63323779025726268 -0 -0.77395729920332101 0.77395729920332101 0 0.63323779025726268 0 -1 0 
1 31.5 0 7.3000000000000007 -0.63323779025726268 0 0.77395729920332101 0.77395729920332101 0 0.63323779025726268 0 1 -0 
1 22.5 0 -9.1999999999999993 -0.87789557291438436 0 0.47885213068057331 0.47885213068057331 0 0.87789557291438436 0 1 -0 
1 22.5 0 -9.1999999999999993 0.87789557291438436 -0 -0.47885213068057331 0.47885213068057331 0 0.87789557291438436 0 -1 0 
1 22.5 0 -9.1999999999999993 -0.87789557291438436 0 0.47885213068057331 0.47885213068057331 0 0.87789557291438436 0 1 -0 
1 20.5 0 -14.699999999999999 -0.93979342348843709 0 0.34174306308670443 0.34174306308670443 0 0.93979342348843709 0 1 -0 
1 20.5 0 -14.699999999999999 0.93979342348843709 -0 -0.34174306308670443 0.34174306308670443 0 0.93979342348843709 0 -1 0 
1 20.5 0 -14.699999999999999 -0.93979342348843709 0 0.34174306308670443 0.34174306308670443 0 0.93979342348843709 0 1 -0 
1 26 0 -13.199999999999999 0.26311740579210879 -0 -0.96476382123773219 -0.96476382123773219 -0 -0.26311740579210879 0 1 -0 
1 26 0 -13.199999999999999 -0.26311740579210879 0 0.96476382123773219 -0.96476382123773219 0 -0.26311740579210879 -0 -1 0 
1 26 0 -13.199999999999999 0.26311740579210879 -0 -0.96476382123773219 -0.96476382123773219 -0 -0.26311740579210879 0 1 -0 
1 35.5 0 6.3000000000000007 -0.8989898688372695 0 0.4379694232796954 -0.4379694232796954 0 -0.8989898688372695 -0 -1 0 
1 35.5 0 6.3000000000000007 0.8989898688372695 -0 -0.4379694232796954 -0.4379694232796954 -0 -0.8989898688372695 0 1 -0 
1 35.5 0 6.3000000000000007 0.8989898688372695 -0 -0.4379694232796954 -0.4379694232796954 -0 -0.8989898688372695 0 1 -0 
1 37 0 11.800000000000001 0.96476382123773219 -0 -0.26311740579210879 -0.26311740579210879 -0 -0.96476382123773219 0 1 -0 
1 37 0 11.800000000000001 0.96476382123773219 -0 -0.26311740579210879 -0.26311740579210879 -0 -0.96476382123773219 0 1 -0 
1 37 0 11.800000000000001 -0.96476382123773219 0 0.26311740579210879 -0.26311740579210879 0 -0.96476382123773219 -0 -1 0 
1 29.036028670829563 -1.8920645329562276 0 -0 -0 -1 -1 0 0 0 1 -0 
1 31.5 0 7.3000000000000007 -0.63323779025726268 0 0.77395729920332101 0.77395729920332101 0 0.63323779025726268 0 1 -0 
1 31.5 0 7.3000000000000007 0.63323779025726268 -0 -0.77395729920332101 0.77395729920332101 0 0.63323779025726268 0 -1 0 
1 31.5 0 7.3000000000000007 -0.63323779025726268 0 0.77395729920332101 0.77395729920332101 0 0.63323779025726268 0 1 -0 
1 22.5 0 -9.1999999999999993 -0.87789557291438436 0 0.47885213068057331 0.47885213068057331 0 0.87789557291438436 0 1 -0 
1 22.5 0 -9.1999999999999993 0.87789557291438436 -0 -0.47885213068057331 0.47885213068057331 0 0.87789557291438436 0 -1 0 
1 22.5 0 -9.1999999999999993 -0.87789557291438436 0 0.47885213068057331 0.47885213068057331 0 0.87789557291438436 0 1 -0 
1 20.5 0 -14.699999999999999 -0.93979342348843709 0 0.34174306308670443 0.34174306308670443 0 0.93979342348843709 0 1 -0 
1 20.5 0 -14.699999999999999 0.93979342348843709 -0 -0.34174306308670443 0.34174306308670443 0 0.93979342348843709 0 -1 0 
1 20.5 0 -14.699999999999999 -0.93979342348843709 0 0.34174306308670443 0.34174306308670443 0 0.93979342348843709 0 1 -0 
1 26 0 -13.199999999999999 0.26311740579210879 -0 -0.96476382123773219 -0.96476382123773219 -0 -0.26311740579210879 0 1 -0 
1 26 0 -13.199999999999999 -0.26311740579210879 0 0.96476382123773219 -0.96476382123773219 0 -0.26311740579210879 -0 -1 0 
1 26 0 -13.199999999999999 0.26311740579210879 -0 -0.96476382123773219 -0.96476382123773219 -0 -0.26311740579210879 0 1 -0 
1 35.5 0 6.3000000000000007 -0.8989898688372695 0 0.4379694232796954 -0.4379694232796954 0 -0.8989898688372695 -0 -1 0 
1 35.5 0 6.3000000000000007 0.8989898688372695 -0 -0.4379694232796954 -0.4379694232796954 -0 -0.8989898688372695 0 1 -0 
1 35.5 0 6.3000000000000007 0.8989898688372695 -0 -0.4379694232796954 -0.4379694232796954 -0 -0.8989898688372695 0 1 -0 
1 37 0 11.800000000000001 0.96476382123773219 -0 -0.26311740579210879 -0.26311740579210879 -0 -0.96476382123773219 0 1 -0 
1 37 0 11.800000000000001 0.96476382123773219 -0 -0.26311740579210879 -0.26311740579210879 -0 -0.96476382123773219 0 1 -0 
1 37 0 11.800000000000001 -0.96476382123773219 0 0.26311740579210879 -0.26311740579210879 0 -0.96476382123773219 -0 -1 0 
1 29.036028670829563 -1.8920645329562276 0 -0 -0 -1 -1 0 0 0 1 -0 
1 31.5 0 7.3000000000000007 -0.63323779025726268 0 0.77395729920332101 0.77395729920332101 0 0.63323779025726268 0 1 -0 
1 31.5 0 7.3000000000000007 0.63323779025726268 -0 -0.77395729920332101 0.77395729920332101 0 0.63323779025726268 0 -1 0 
1 31.5 0 7.3000000000000007 -0.63323779025726268 0 0.77395729920332101 0.77395729920332101 0 0.63323779025726268 0 1 -0 
1 22.5 0 -9.1999999999999993 -0.87789557291438436 0 0.47885213068057331 0.47885213068057331 0 0.87789557291438436 0 1 -0 
1 22.5 0 -9.1999999999999993 0.87789557291438436 -0 -0.47885213068057331 0.47885213068057331 0 0.87789557291438436 0 -1 0 
1 22.5 0 -9.1999999999999993 -0.87789557291438436 0 0.47885213068057331 0.47885213068057331 0 0.87789557291438436 0 1 -0 
1 20.5 0 -14.699999999999999 -0.93979342348843709 0 0.34174306308670443 0.34174306308670443 0 0.93979342348843709 0 1 -0 
1 20.5 0 -14.699999999999999 0.93979342348843709 -0 -0.34174306308670443 0.34174306308670443 0 0.93979342348843709 0 -1 0 
1 20.5 0 -14.699999999999999 -0.93979342348843709 0 0.34174306308670443 0.34174306308670443 0 0.93979342348843709 0 1 -0 
1 26 0 -13.199999999999999 0.26311740579210879 -0 -0.96476382123773219 -0.96476382123773219 -0 -0.26311740579210879 0 1 -0 
1 26 0 -13.199999999999999 -0.26311740579210879 0 0.96476382123773219 -0.96476382123773219 0 -0.26311740579210879 -0 -1 0 
1 26 0 -13.199999999999999 0.26311740579210879 -0 -0.96476382123773219 -0.96476382123773219 -0 -0.26311740579210879 0 1 -0 
1 35.5 0 6.3000000000000007 -0.8989898688372695 0 0.4379694232796954 -0.4379694232796954 0 -0.8989898688372695 -0 -1 0 
1 35.5 0 6.3000000000000007 0.8989898688372695 -0 -0.4379694232796954 -0.4379694232796954 -0 -0.8989898688372695 0 1 -0 
1 35.5 0 6.3000000000000007 0.8989898688372695 -0 -0.4379694232796954 -0.4379694232796954 -0 -0.8989898688372695 0 1 -0 
2 0 0 0 0 0 1 1 0 -0 -0 1 0 49
1 0 0 5.4000000000000021 0 0 1 1 0 -0 -0 1 0 
1 0 0 0 0 0 1 1 0 -0 -0 1 0 
2 0 0 0 0 0 1 1 0 -0 -0 1 0 39
1 0 0 5.4000000000000021 0 0 1 1 0 -0 -0 1 0 
1 0 0 0 0 0 1 1 0 -0 -0 1 0 
Triangulations 0

TShapes 280
Ve
1e-07
40 -9.79717439317883e-15 5.5
0 0

0101101
*
Ed
 1e-07 1 1 0
1  1 0 0 6.28318530717959
2  1 1 0 0 6.28318530717959
2  2 2 0 0 6.28318530717959
0

0101000
+280 0 -280 0 *
Ve
1e-07
40 -9.79717439317883e-15 0
0 0

0101101
*
Ed
 1e-07 1 1 0
1  2 0 0 5.5
3  3 4CN 1 0 0 5.5
0

0101000
-280 0 +278 0 *
Ed
 1e-07 1 1 0
1  3 0 0 6.28318530717959
2  5 1 0 0 6.28318530717959
2  6 3 0 0 6.28318530717959
0

0101000
+278 0 -278 0 *
Wi

0101100
-279 0 +277 0 +276 0 -277 0 *
Fa
0  1e-07 1 0

0111000
+275 0 *
Wi

0101100
+279 3 *
Ve
1e-07
36.5 -8.93992163377568e-15 5.5
0 0

0101101
*
Ed
 1e-07 1 1 0
1  4 0 0 6.28318530717959
2  7 4 0 0 6.28318530717959
2  8 5 0 0 6.28318530717959
2  9 2 7 0 6.28318530717959
0

0101000
+272 0 -272 0 *
Wi

0101100
-271 6 *
Fa
0  1e-07 2 3

0101000
+273 0 +270 0 *
Wi

0101100
+276 3 *
Ve
1e-07
36.5 -8.93992163377568e-15 0
0 0

0101101
*
Ed
 1e-07 1 1 0
1  5 0 0 6.28318530717959
2  10 4 0 0 6.28318530717959
2  11 6 0 0 6.28318530717959
2  12 3 7 0 6.28318530717959
0

0101000
+267 0 -267 0 *
Wi

0101100
-266 6 *
Fa
0  1e-07 3 3

0101000
+268 0 +265 0 *
Ed
 1e-07 1 1 0
1  6 0 0 5.5
3  13 14CN 4 0 0 5.5
0

0101000
-272 0 +267 0 *
Wi

0101100
-271 0 +263 0 +266 0 -263 0 *
Fa
0  1e-07 4 0

0111000
+262 0 *
Sh

0101100
+274 3 +269 0 -264 0 -261 6 *
So

0100000
+260 0 *
Co

0100000
+259 0 *
Ve
1e-07
31 -7.59281015471359e-15 6
0 0

0101101
*
Ed
 1e-07 1 1 0
1  7 0 0 6.28318530717959
2  15 7 0 0 6.28318530717959
2  16 8 0 0 6.28318530717959
0

0101000
+257 0 -257 0 *
Ve
1e-07
31 -7.59281015471359e-15 0
0 0

0101101
*
Ed
 1e-07 1 1 0
1  8 0 0 6
3  17 18CN 7 0 0 6
0

0101000
-257 0 +255 0 *
Ed
 1e-07 1 1 0
1  9 0 0 6.28318530717959
2  19 7 0 0 6.28318530717959
2  20 9 0 0 6.28318530717959
0

0101000
+255 0 -255 0 *
Wi

0101100
-256 0 +254 0 +253 0 -254 0 *
Fa
0  1e-07 7 0

0111000
+252 0 *
Wi

0101100
+256 10 *
Ve
1e-07
20 -4.89858719658941e-15 6
0 0

0101101
*
Ed
 1e-07 1 1 0
1  10 0 0 6.28318530717959
2  21 10 0 0 6.28318530717959
2  22 11 0 0 6.28318530717959
2  23 8 14 0 6.28318530717959
0

0101000
+249 0 -249 0 *
Wi

0101100
-248 13 *
Fa
0  1e-07 8 10

0101000
+250 0 +247 0 *
Wi

0101100
+253 10 *
Ve
1e-07
20 -4.89858719658941e-15 0
0 0

0101101
*
Ed
 1e-07 1 1 0
1  11 0 0 6.28318530717959
2  24 10 0 0 6.28318530717959
2  25 12 0 0 6.28318530717959
2  26 9 14 0 6.28318530717959
0

0101000
+244 0 -244 0 *
Wi

0101100
-243 13 *
Fa
0  1e-07 9 10

0101000
+245 0 +242 0 *
Ed
 1e-07 1 1 0
1  12 0 0 6
3  27 28CN 10 0 0 6
0

0101000
-249 0 +244 0 *
Wi

0101100
-248 0 +240 0 +243 0 -240 0 *
Fa
0  1e-07 10 0

0111000
+239 0 *
Sh

0101100
+251 10 +246 0 -241 0 -238 13 *
So

0100000
+237 0 *
Co

0100000
+236 0 *
Ve
1e-07
30 -7.34788079488412e-15 15.4
0 0

0101101
*
Ed
 1e-07 1 1 0
1  13 0 0 6.28318530717959
2  29 13 0 0 6.28318530717959
2  30 14 0 0 6.28318530717959
0

0101000
+234 0 -234 0 *
Ve
1e-07
30 -7.34788079488412e-15 0
0 0

0101101
*
Ed
 1e-07 1 1 0
1  14 0 0 15.4
3  31 32CN 13 0 0 15.4
0

0101000
-234 0 +232 0 *
Ed
 1e-07 1 1 0
1  15 0 0 6.28318530717959
2  33 13 0 0 6.28318530717959
2  34 15 0 0 6.28318530717959
0

0101000
+232 0 -232 0 *
Wi

0101100
-233 0 +231 0 +230 0 -231 0 *
Fa
0  1e-07 13 0

0111000
+229 0 *
Wi

0101100
+233 0 *
Fa
0  1e-07 14 0

0111000
+227 0 *
Wi

0101100
-230 0 *
Fa
0  1e-07 15 0

0111000
-225 0 *
Sh

0101100
+228 0 +226 0 -224 0 *
So

0100000
+223 0 *
Co

0100000
+222 16 *
Ve
1e-07
37 11.8 0
0 0

0101101
*
Ve
1e-07
35.5 6.3 0
0 0

0101101
*
Ed
 1e-07 1 1 0
1  16 0 0 5.70087712549569
2  35 17 23 0 5.70087712549569
2  36 17 24 0 5.70087712549569
2  37 18 23 0 5.70087712549569
2  38 18 26 0 5.70087712549569
2  39 19 0 0 5.70087712549569
0

0101000
+220 0 -219 0 *
Ve
1e-07
35.5 6.3 0
0 0

0101101
*
Ed
 1e-07 1 1 0
1  17 0 0 7.73510628180636
0

0101000
+219 22 -217 27 *
Ve
1e-07
37 11.8 0
0 0

0101101
*
Ed
 1e-07 1 1 0
1  16 0 0 5.70087712549569
2  35 17 23 0 5.70087712549569
2  36 17 24 0 5.70087712549569
2  37 18 23 0 5.70087712549569
2  38 18 26 0 5.70087712549569
2  39 19 0 0 5.70087712549569
0

0101000
+215 0 -217 0 *
Ed
 1e-07 1 1 0
1  18 0 0 7.73510628180636
0

0101000
+215 27 -220 22 *
Wi

0101100
+218 22 +216 0 -214 27 +213 0 *
Fa
0  0 16 0

0111000
+212 0 *
Ve
1e-07
31.5 7.3 0
0 0

0101101
*
Ed
 1e-07 1 1 0
1  19 0 0 7.10633520177595
2  40 21 23 0 7.10633520177595
2  41 21 26 0 7.10633520177595
2  42 22 23 0 7.10633520177595
2  43 22 24 0 7.10633520177595
2  44 19 0 0 7.10633520177595
0

0101000
+210 0 -220 0 *
Ve
1e-07
31.5 7.3 0
0 0

0101101
*
Ed
 1e-07 1 1 0
1  19 0 0 7.10633520177595
2  40 21 23 0 7.10633520177595
2  41 21 26 0 7.10633520177595
2  42 22 23 0 7.10633520177595
2  43 22 24 0 7.10633520177595
2  44 19 0 0 7.10633520177595
0

0101000
+208 0 -215 0 *
Ed
 1e-07 1 1 0
1  20 0 0 7.73510628180636
0

0101000
+208 27 -210 22 *
Wi

0101100
+209 22 -213 0 -207 27 +206 0 *
Fa
0  0 20 0

0111000
+205 0 *
Ve
1e-07
22.5 -9.2 0
0 0

0101101
*
Ed
 1e-07 1 1 0
1  21 0 0 18.7949461292125
2  45 24 23 0 18.7949461292125
2  46 24 26 0 18.7949461292125
2  47 25 23 0 18.7949461292125
2  48 25 24 0 18.7949461292125
2  49 19 0 0 18.7949461292125
0

0101000
+203 0 -210 0 *
Ve
1e-07
22.5 -9.2 0
0 0

0101101
*
Ed
 1e-07 1 1 0
1  21 0 0 18.7949461292125
2  45 24 23 0 18.7949461292125
2  46 24 26 0 18.7949461292125
2  47 25 23 0 18.7949461292125
2  48 25 24 0 18.7949461292125
2  49 19 0 0 18.7949461292125
0

0101000
+201 0 -208 0 *
Ed
 1e-07 1 1 0
1  22 0 0 7.73510628180636
0

0101000
+201 27 -203 22 *
Wi

0101100
+202 22 -206 0 -200 27 +199 0 *
Fa
0  0 23 0

0111000
+198 0 *
Ve
1e-07
20.5 -14.7 0
0 0

0101101
*
Ve
1e-07
20.5 -14.7 0
0 0

0101101
*
Ed
 1e-07 1 1 0
1  23 0 0 7.73510628180636
0

0101000
+196 22 -195 27 *
Ed
 1e-07 1 1 0
1  24 0 0 5.85234995535981
2  50 27 23 0 5.85234995535981
2  51 27 26 0 5.85234995535981
2  52 28 23 0 5.85234995535981
2  53 28 24 0 5.85234995535981
2  54 19 0 0 5.85234995535981
0

0101000
+196 0 -203 0 *
Ed
 1e-07 1 1 0
1  24 0 0 5.85234995535981
2  50 27 23 0 5.85234995535981
2  51 27 26 0 5.85234995535981
2  52 28 23 0 5.85234995535981
2  53 28 24 0 5.85234995535981
2  54 19 0 0 5.85234995535981
0

0101000
+195 0 -201 0 *
Wi

0101100
-194 0 +193 22 -199 0 -192 27 *
Fa
0  0 26 0

0111000
+191 0 *
Ve
1e-07
26 -13.2 0
0 0

0101101
*
Ve
1e-07
26 -13.2 0
0 0

0101101
*
Ed
 1e-07 1 1 0
1  25 0 0 7.73510628180636
0

0101000
+189 22 -188 27 *
Ed
 1e-07 1 1 0
1  26 0 0 5.70087712549569
2  55 30 23 0 5.70087712549569
2  56 30 26 0 5.70087712549569
2  57 31 23 0 5.70087712549569
2  58 31 24 0 5.70087712549569
2  59 19 0 0 5.70087712549569
0

0101000
+189 0 -196 0 *
Ed
 1e-07 1 1 0
1  26 0 0 5.70087712549569
2  55 30 23 0 5.70087712549569
2  56 30 26 0 5.70087712549569
2  57 31 23 0 5.70087712549569
2  58 31 24 0 5.70087712549569
2  59 19 0 0 5.70087712549569
0

0101000
+188 0 -195 0 *
Wi

0101100
-187 0 +186 22 +194 0 -185 27 *
Fa
0  0 29 0

0111000
+184 0 *
Ed
 1e-07 1 1 0
1  27 0 0 21.6910119634839
2  60 32 23 0 21.6910119634839
2  61 32 26 0 21.6910119634839
2  62 33 23 0 21.6910119634839
2  63 33 24 0 21.6910119634839
2  64 19 0 0 21.6910119634839
0

0101000
+217 0 -188 0 *
Wi

0101100
+214 0 +182 0 +185 0 +192 0 +200 0 +207 0 *
Fa
0  1e-07 19 0

0101000
+181 0 *
Ed
 1e-07 1 1 0
1  27 0 0 21.6910119634839
2  60 32 23 0 21.6910119634839
2  61 32 26 0 21.6910119634839
2  62 33 23 0 21.6910119634839
2  63 33 24 0 21.6910119634839
2  64 19 0 0 21.6910119634839
0

0101000
+219 0 -189 0 *
Wi

0101100
-216 0 +179 22 +187 0 -182 27 *
Fa
0  0 34 0

0111000
+178 0 *
Wi

0101100
+218 0 +179 0 +186 0 +193 0 +202 0 +209 0 *
Fa
0  1e-07 19 0

0101000
+176 0 *
Sh

0101100
+211 0 +204 0 +197 0 +190 0 +183 0 +180 27 +177 0 -175 22 *
So

0100000
+174 0 *
Co

0100000
+173 0 *
Ve
1e-07
37 11.8 0
0 0

0101101
*
Ve
1e-07
35.5 6.3 0
0 0

0101101
*
Ed
 1e-07 1 1 0
1  28 0 0 5.70087712549569
2  65 36 34 0 5.70087712549569
2  66 36 35 0 5.70087712549569
2  67 37 34 0 5.70087712549569
2  68 37 37 0 5.70087712549569
2  69 38 0 0 5.70087712549569
0

0101000
+171 0 -170 0 *
Ve
1e-07
35.5 6.3 0
0 0

0101101
*
Ed
 1e-07 1 1 0
1  29 0 0 7.73510628180636
0

0101000
+170 33 -168 38 *
Ve
1e-07
37 11.8 0
0 0

0101101
*
Ed
 1e-07 1 1 0
1  28 0 0 5.70087712549569
2  65 36 34 0 5.70087712549569
2  66 36 35 0 5.70087712549569
2  67 37 34 0 5.70087712549569
2  68 37 37 0 5.70087712549569
2  69 38 0 0 5.70087712549569
0

0101000
+166 0 -168 0 *
Ed
 1e-07 1 1 0
1  30 0 0 7.73510628180636
0

0101000
+166 38 -171 33 *
Wi

0101100
+169 33 +167 0 -165 38 +164 0 *
Fa
0  0 35 0

0111000
+163 0 *
Ve
1e-07
31.5 7.3 0
0 0

0101101
*
Ed
 1e-07 1 1 0
1  31 0 0 7.10633520177595
2  70 40 34 0 7.10633520177595
2  71 40 37 0 7.10633520177595
2  72 41 34 0 7.10633520177595
2  73 41 35 0 7.10633520177595
2  74 38 0 0 7.10633520177595
0

0101000
+161 0 -171 0 *
Ve
1e-07
31.5 7.3 0
0 0

0101101
*
Ed
 1e-07 1 1 0
1  31 0 0 7.10633520177595
2  70 40 34 0 7.10633520177595
2  71 40 37 0 7.10633520177595
2  72 41 34 0 7.10633520177595
2  73 41 35 0 7.10633520177595
2  74 38 0 0 7.10633520177595
0

0101000
+159 0 -166 0 *
Ed
 1e-07 1 1 0
1  32 0 0 7.73510628180636
0

0101000
+159 38 -161 33 *
Wi

0101100
+160 33 -164 0 -158 38 +157 0 *
Fa
0  0 39 0

0111000
+156 0 *
Ve
1e-07
22.5 -9.2 0
0 0

0101101
*
Ed
 1e-07 1 1 0
1  33 0 0 18.7949461292125
2  75 43 34 0 18.7949461292125
2  76 43 37 0 18.7949461292125
2  77 44 34 0 18.7949461292125
2  78 44 35 0 18.7949461292125
2  79 38 0 0 18.7949461292125
0

0101000
+154 0 -161 0 *
Ve
1e-07
22.5 -9.2 0
0 0

0101101
*
Ed
 1e-07 1 1 0
1  33 0 0 18.7949461292125
2  75 43 34 0 18.7949461292125
2  76 43 37 0 18.7949461292125
2  77 44 34 0 18.7949461292125
2  78 44 35 0 18.7949461292125
2  79 38 0 0 18.7949461292125
0

0101000
+152 0 -159 0 *
Ed
 1e-07 1 1 0
1  34 0 0 7.73510628180636
0

0101000
+152 38 -154 33 *
Wi

0101100
+153 33 -157 0 -151 38 +150 0 *
Fa
0  0 42 0

0111000
+149 0 *
Ve
1e-07
20.5 -14.7 0
0 0

0101101
*
Ve
1e-07
20.5 -14.7 0
0 0

0101101
*
Ed
 1e-07 1 1 0
1  35 0 0 7.73510628180636
0

0101000
+147 33 -146 38 *
Ed
 1e-07 1 1 0
1  36 0 0 5.85234995535981
2  80 46 34 0 5.85234995535981
2  81 46 37 0 5.85234995535981
2  82 47 34 0 5.85234995535981
2  83 47 35 0 5.85234995535981
2  84 38 0 0 5.85234995535981
0

0101000
+147 0 -154 0 *
Ed
 1e-07 1 1 0
1  36 0 0 5.85234995535981
2  80 46 34 0 5.85234995535981
2  81 46 37 0 5.85234995535981
2  82 47 34 0 5.85234995535981
2  83 47 35 0 5.85234995535981
2  84 38 0 0 5.85234995535981
0

0101000
+146 0 -152 0 *
Wi

0101100
-145 0 +144 33 -150 0 -143 38 *
Fa
0  0 45 0

0111000
+142 0 *
Ve
1e-07
26 -13.2 0
0 0

0101101
*
Ve
1e-07
26 -13.2 0
0 0

0101101
*
Ed
 1e-07 1 1 0
1  37 0 0 7.73510628180636
0

0101000
+140 33 -139 38 *
Ed
 1e-07 1 1 0
1  38 0 0 5.70087712549569
2  85 49 34 0 5.70087712549569
2  86 49 37 0 5.70087712549569
2  87 50 34 0 5.70087712549569
2  88 50 35 0 5.70087712549569
2  89 38 0 0 5.70087712549569
0

0101000
+140 0 -147 0 *
Ed
 1e-07 1 1 0
1  38 0 0 5.70087712549569
2  85 49 34 0 5.70087712549569
2  86 49 37 0 5.70087712549569
2  87 50 34 0 5.70087712549569
2  88 50 35 0 5.70087712549569
2  89 38 0 0 5.70087712549569
0

0101000
+139 0 -146 0 *
Wi

0101100
-138 0 +137 33 +145 0 -136 38 *
Fa
0  0 48 0

0111000
+135 0 *
Ed
 1e-07 1 1 0
1  39 0 0 21.6910119634839
2  90 51 34 0 21.6910119634839
2  91 51 37 0 21.6910119634839
2  92 52 34 0 21.6910119634839
2  93 52 35 0 21.6910119634839
2  94 38 0 0 21.6910119634839
0

0101000
+168 0 -139 0 *
Wi

0101100
+165 0 +133 0 +136 0 +143 0 +151 0 +158 0 *
Fa
0  1e-07 38 0

0101000
+132 0 *
Ed
 1e-07 1 1 0
1  39 0 0 21.6910119634839
2  90 51 34 0 21.6910119634839
2  91 51 37 0 21.6910119634839
2  92 52 34 0 21.6910119634839
2  93 52 35 0 21.6910119634839
2  94 38 0 0 21.6910119634839
0

0101000
+170 0 -140 0 *
Wi

0101100
-167 0 +130 33 +138 0 -133 38 *
Fa
0  0 53 0

0111000
+129 0 *
Wi

0101100
+169 0 +130 0 +137 0 +144 0 +153 0 +160 0 *
Fa
0  1e-07 38 0

0101000
+127 0 *
Sh

0101100
+162 0 +155 0 +148 0 +141 0 +134 0 +131 38 +128 0 -126 33 *
So

0100000
+125 0 *
Co

0100000
+124 0 *
Ve
1e-07
37 11.8 0
0 0

0101101
*
Ve
1e-07
35.5 6.3 0
0 0

0101101
*
Ed
 1e-07 1 1 0
1  40 0 0 5.70087712549569
2  95 55 45 0 5.70087712549569
2  96 55 46 0 5.70087712549569
2  97 56 45 0 5.70087712549569
2  98 56 48 0 5.70087712549569
2  99 57 0 0 5.70087712549569
0

0101000
+122 0 -121 0 *
Ve
1e-07
35.5 6.3 0
0 0

0101101
*
Ed
 1e-07 1 1 0
1  41 0 0 7.73510628180636
0

0101000
+121 44 -119 49 *
Ve
1e-07
37 11.8 0
0 0

0101101
*
Ed
 1e-07 1 1 0
1  40 0 0 5.70087712549569
2  95 55 45 0 5.70087712549569
2  96 55 46 0 5.70087712549569
2  97 56 45 0 5.70087712549569
2  98 56 48 0 5.70087712549569
2  99 57 0 0 5.70087712549569
0

0101000
+117 0 -119 0 *
Ed
 1e-07 1 1 0
1  42 0 0 7.73510628180636
0

0101000
+117 49 -122 44 *
Wi

0101100
+120 44 +118 0 -116 49 +115 0 *
Fa
0  0 54 0

0111000
+114 0 *
Ve
1e-07
31.5 7.3 0
0 0

0101101
*
Ed
 1e-07 1 1 0
1  43 0 0 7.10633520177595
2  100 59 45 0 7.10633520177595
2  101 59 48 0 7.10633520177595
2  102 60 45 0 7.10633520177595
2  103 60 46 0 7.10633520177595
2  104 57 0 0 7.10633520177595
0

0101000
+112 0 -122 0 *
Ve
1e-07
31.5 7.3 0
0 0

0101101
*
Ed
 1e-07 1 1 0
1  43 0 0 7.10633520177595
2  100 59 45 0 7.10633520177595
2  101 59 48 0 7.10633520177595
2  102 60 45 0 7.10633520177595
2  103 60 46 0 7.10633520177595
2  104 57 0 0 7.10633520177595
0

0101000
+110 0 -117 0 *
Ed
 1e-07 1 1 0
1  44 0 0 7.73510628180636
0

0101000
+110 49 -112 44 *
Wi

0101100
+111 44 -115 0 -109 49 +108 0 *
Fa
0  0 58 0

0111000
+107 0 *
Ve
1e-07
22.5 -9.2 0
0 0

0101101
*
Ed
 1e-07 1 1 0
1  45 0 0 18.7949461292125
2  105 62 45 0 18.7949461292125
2  106 62 48 0 18.7949461292125
2  107 63 45 0 18.7949461292125
2  108 63 46 0 18.7949461292125
2  109 57 0 0 18.7949461292125
0

0101000
+105 0 -112 0 *
Ve
1e-07
22.5 -9.2 0
0 0

0101101
*
Ed
 1e-07 1 1 0
1  45 0 0 18.7949461292125
2  105 62 45 0 18.7949461292125
2  106 62 48 0 18.7949461292125
2  107 63 45 0 18.7949461292125
2  108 63 46 0 18.7949461292125
2  109 57 0 0 18.7949461292125
0

0101000
+103 0 -110 0 *
Ed
 1e-07 1 1 0
1  46 0 0 7.73510628180636
0

0101000
+103 49 -105 44 *
Wi

0101100
+104 44 -108 0 -102 49 +101 0 *
Fa
0  0 61 0

0111000
+100 0 *
Ve
1e-07
20.5 -14.7 0
0 0

0101101
*
Ve
1e-07
20.5 -14.7 0
0 0

0101101
*
Ed
 1e-07 1 1 0
1  47 0 0 7.73510628180636
0

0101000
+98 44 -97 49 *
Ed
 1e-07 1 1 0
1  48 0 0 5.85234995535981
2  110 65 45 0 5.85234995535981
2  111 65 48 0 5.85234995535981
2  112 66 45 0 5.85234995535981
2  113 66 46 0 5.85234995535981
2  114 57 0 0 5.85234995535981
0

0101000
+98 0 -105 0 *
Ed
 1e-07 1 1 0
1  48 0 0 5.85234995535981
2  110 65 45 0 5.85234995535981
2  111 65 48 0 5.85234995535981
2  112 66 45 0 5.85234995535981
2  113 66 46 0 5.85234995535981
2  114 57 0 0 5.85234995535981
0

0101000
+97 0 -103 0 *
Wi

0101100
-96 0 +95 44 -101 0 -94 49 *
Fa
0  0 64 0

0111000
+93 0 *
Ve
1e-07
26 -13.2 0
0 0

0101101
*
Ve
1e-07
26 -13.2 0
0 0

0101101
*
Ed
 1e-07 1 1 0
1  49 0 0 7.73510628180636
0

0101000
+91 44 -90 49 *
Ed
 1e-07 1 1 0
1  50 0 0 5.70087712549569
2  115 68 45 0 5.70087712549569
2  116 68 48 0 5.70087712549569
2  117 69 45 0 5.70087712549569
2  118 69 46 0 5.70087712549569
2  119 57 0 0 5.70087712549569
0

0101000
+91 0 -98 0 *
Ed
 1e-07 1 1 0
1  50 0 0 5.70087712549569
2  115 68 45 0 5.70087712549569
2  116 68 48 0 5.70087712549569
2  117 69 45 0 5.70087712549569
2  118 69 46 0 5.70087712549569
2  119 57 0 0 5.70087712549569
0

0101000
+90 0 -97 0 *
Wi

0101100
-89 0 +88 44 +96 0 -87 49 *
Fa
0  0 67 0

0111000
+86 0 *
Ed
 1e-07 1 1 0
1  51 0 0 21.6910119634839
2  120 70 45 0 21.6910119634839
2  121 70 48 0 21.6910119634839
2  122 71 45 0 21.6910119634839
2  123 71 46 0 21.6910119634839
2  124 57 0 0 21.6910119634839
0

0101000
+119 0 -90 0 *
Wi

0101100
+116 0 +84 0 +87 0 +94 0 +102 0 +109 0 *
Fa
0  1e-07 57 0

0101000
+83 0 *
Ed
 1e-07 1 1 0
1  51 0 0 21.6910119634839
2  120 70 45 0 21.6910119634839
2  121 70 48 0 21.6910119634839
2  122 71 45 0 21.6910119634839
2  123 71 46 0 21.6910119634839
2  124 57 0 0 21.6910119634839
0

0101000
+121 0 -91 0 *
Wi

0101100
-118 0 +81 44 +89 0 -84 49 *
Fa
0  0 72 0

0111000
+80 0 *
Wi

0101100
+120 0 +81 0 +88 0 +95 0 +104 0 +111 0 *
Fa
0  1e-07 57 0

0101000
+78 0 *
Sh

0101100
+113 0 +106 0 +99 0 +92 0 +85 0 +82 49 +79 0 -77 44 *
So

0100000
+76 0 *
Co

0100000
+75 0 *
Ve
1e-07
37 11.8 0
0 0

0101101
*
Ve
1e-07
35.5 6.3 0
0 0

0101101
*
Ed
 1e-07 1 1 0
1  52 0 0 5.70087712549569
2  125 74 56 0 5.70087712549569
2  126 74 57 0 5.70087712549569
2  127 75 56 0 5.70087712549569
2  128 75 59 0 5.70087712549569
2  129 76 0 0 5.70087712549569
0

0101000
+73 0 -72 0 *
Ve
1e-07
35.5 6.3 0
0 0

0101101
*
Ed
 1e-07 1 1 0
1  53 0 0 7.73510628180636
0

0101000
+72 55 -70 60 *
Ve
1e-07
37 11.8 0
0 0

0101101
*
Ed
 1e-07 1 1 0
1  52 0 0 5.70087712549569
2  125 74 56 0 5.70087712549569
2  126 74 57 0 5.70087712549569
2  127 75 56 0 5.70087712549569
2  128 75 59 0 5.70087712549569
2  129 76 0 0 5.70087712549569
0

0101000
+68 0 -70 0 *
Ed
 1e-07 1 1 0
1  54 0 0 7.73510628180636
0

0101000
+68 60 -73 55 *
Wi

0101100
+71 55 +69 0 -67 60 +66 0 *
Fa
0  0 73 0

0111000
+65 0 *
Ve
1e-07
31.5 7.3 0
0 0

0101101
*
Ed
 1e-07 1 1 0
1  55 0 0 7.10633520177595
2  130 78 56 0 7.10633520177595
2  131 78 59 0 7.10633520177595
2  132 79 56 0 7.10633520177595
2  133 79 57 0 7.10633520177595
2  134 76 0 0 7.10633520177595
0

0101000
+63 0 -73 0 *
Ve
1e-07
31.5 7.3 0
0 0

0101101
*
Ed
 1e-07 1 1 0
1  55 0 0 7.10633520177595
2  130 78 56 0 7.10633520177595
2  131 78 59 0 7.10633520177595
2  132 79 56 0 7.10633520177595
2  133 79 57 0 7.10633520177595
2  134 76 0 0 7.10633520177595
0

0101000
+61 0 -68 0 *
Ed
 1e-07 1 1 0
1  56 0 0 7.73510628180636
0

0101000
+61 60 -63 55 *
Wi

0101100
+62 55 -66 0 -60 60 +59 0 *
Fa
0  0 77 0

0111000
+58 0 *
Ve
1e-07
22.5 -9.2 0
0 0

0101101
*
Ed
 1e-07 1 1 0
1  57 0 0 18.7949461292125
2  135 81 56 0 18.7949461292125
2  136 81 59 0 18.7949461292125
2  137 82 56 0 18.7949461292125
2  138 82 57 0 18.7949461292125
2  139 76 0 0 18.7949461292125
0

0101000
+56 0 -63 0 *
Ve
1e-07
22.5 -9.2 0
0 0

0101101
*
Ed
 1e-07 1 1 0
1  57 0 0 18.7949461292125
2  135 81 56 0 18.7949461292125
2  136 81 59 0 18.7949461292125
2  137 82 56 0 18.7949461292125
2  138 82 57 0 18.7949461292125
2  139 76 0 0 18.7949461292125
0

0101000
+54 0 -61 0 *
Ed
 1e-07 1 1 0
1  58 0 0 7.73510628180636
0

0101000
+54 60 -56 55 *
Wi

0101100
+55 55 -59 0 -53 60 +52 0 *
Fa
0  0 80 0

0111000
+51 0 *
Ve
1e-07
20.5 -14.7 0
0 0

0101101
*
Ve
1e-07
20.5 -14.7 0
0 0

0101101
*
Ed
 1e-07 1 1 0
1  59 0 0 7.73510628180636
0

0101000
+49 55 -48 60 *
Ed
 1e-07 1 1 0
1  60 0 0 5.85234995535981
2  140 84 56 0 5.85234995535981
2  141 84 59 0 5.85234995535981
2  142 85 56 0 5.85234995535981
2  143 85 57 0 5.85234995535981
2  144 76 0 0 5.85234995535981
0

0101000
+49 0 -56 0 *
Ed
 1e-07 1 1 0
1  60 0 0 5.85234995535981
2  140 84 56 0 5.85234995535981
2  141 84 59 0 5.85234995535981
2  142 85 56 0 5.85234995535981
2  143 85 57 0 5.85234995535981
2  144 76 0 0 5.85234995535981
0

0101000
+48 0 -54 0 *
Wi

0101100
-47 0 +46 55 -52 0 -45 60 *
Fa
0  0 83 0

0111000
+44 0 *
Ve
1e-07
26 -13.2 0
0 0

0101101
*
Ve
1e-07
26 -13.2 0
0 0

0101101
*
Ed
 1e-07 1 1 0
1  61 0 0 7.73510628180636
0

0101000
+42 55 -41 60 *
Ed
 1e-07 1 1 0
1  62 0 0 5.70087712549569
2  145 87 56 0 5.70087712549569
2  146 87 59 0 5.70087712549569
2  147 88 56 0 5.70087712549569
2  148 88 57 0 5.70087712549569
2  149 76 0 0 5.70087712549569
0

0101000
+42 0 -49 0 *
Ed
 1e-07 1 1 0
1  62 0 0 5.70087712549569
2  145 87 56 0 5.70087712549569
2  146 87 59 0 5.70087712549569
2  147 88 56 0 5.70087712549569
2  148 88 57 0 5.70087712549569
2  149 76 0 0 5.70087712549569
0

0101000
+41 0 -48 0 *
Wi

0101100
-40 0 +39 55 +47 0 -38 60 *
Fa
0  0 86 0

0111000
+37 0 *
Ed
 1e-07 1 1 0
1  63 0 0 21.6910119634839
2  150 89 56 0 21.6910119634839
2  151 89 59 0 21.6910119634839
2  152 90 56 0 21.6910119634839
2  153 90 57 0 21.6910119634839
2  154 76 0 0 21.6910119634839
0

0101000
+70 0 -41 0 *
Wi

0101100
+67 0 +35 0 +38 0 +45 0 +53 0 +60 0 *
Fa
0  1e-07 76 0

0101000
+34 0 *
Ed
 1e-07 1 1 0
1  63 0 0 21.6910119634839
2  150 89 56 0 21.6910119634839
2  151 89 59 0 21.6910119634839
2  152 90 56 0 21.6910119634839
2  153 90 57 0 21.6910119634839
2  154 76 0 0 21.6910119634839
0

0101000
+72 0 -42 0 *
Wi

0101100
-69 0 +32 55 +40 0 -35 60 *
Fa
0  0 91 0

0111000
+31 0 *
Wi

0101100
+71 0 +32 0 +39 0 +46 0 +55 0 +62 0 *
Fa
0  1e-07 76 0

0101000
+29 0 *
Sh

0101100
+64 0 +57 0 +50 0 +43 0 +36 0 +33 60 +30 0 -28 55 *
So

0100000
+27 0 *
Co

0100000
+26 0 *
Ve
1e-07
49 -1.20015386316441e-14 5.4
0 0

0101101
*
Ed
 1e-07 1 1 0
1  64 0 0 6.28318530717959
2  155 92 0 0 6.28318530717959
2  156 93 0 0 6.28318530717959
0

0101000
+24 0 -24 0 *
Ve
1e-07
49 -1.20015386316441e-14 0
0 0

0101101
*
Ed
 1e-07 1 1 0
1  65 0 0 5.4
3  157 158CN 92 0 0 5.4
0

0101000
-24 0 +22 0 *
Ed
 1e-07 1 1 0
1  66 0 0 6.28318530717959
2  159 92 0 0 6.28318530717959
2  160 94 0 0 6.28318530717959
0

0101000
+22 0 -22 0 *
Wi

0101100
-23 0 +21 0 +20 0 -21 0 *
Fa
0  1e-07 92 0

0111000
+19 0 *
Wi

0101100
+23 63 *
Ve
1e-07
39 -9.55224503334936e-15 5.4
0 0

0101101
*
Ed
 1e-07 1 1 0
1  67 0 0 6.28318530717959
2  161 95 0 0 6.28318530717959
2  162 96 0 0 6.28318530717959
2  163 93 67 0 6.28318530717959
0

0101000
+16 0 -16 0 *
Wi

0101100
-15 66 *
Fa
0  1e-07 93 63

0101000
+17 0 +14 0 *
Wi

0101100
+20 63 *
Ve
1e-07
39 -9.55224503334936e-15 0
0 0

0101101
*
Ed
 1e-07 1 1 0
1  68 0 0 6.28318530717959
2  164 95 0 0 6.28318530717959
2  165 97 0 0 6.28318530717959
2  166 94 67 0 6.28318530717959
0

0101000
+11 0 -11 0 *
Wi

0101100
-10 66 *
Fa
0  1e-07 94 63

0101000
+12 0 +9 0 *
Ed
 1e-07 1 1 0
1  69 0 0 5.4
3  167 168CN 95 0 0 5.4
0

0101000
-16 0 +11 0 *
Wi

0101100
-15 0 +7 0 +10 0 -7 0 *
Fa
0  1e-07 95 0

0111000
+6 0 *
Sh

0101100
+18 63 +13 0 -8 0 -5 66 *
So

0100000
+4 0 *
Co

0100000
+3 0 *
Co

1100000
+258 0 +235 0 +221 15 +172 19 +123 30 +74 41 +25 52 +2 0 *

+1 0 