DBRep_DrawableShape

CASCADE Topology V3, (c) Open Cascade
Locations 4
1
-0.866025403784444 -0.446514277487284 -0.224999999999998           -10.5 
-0.49999999999999 0.773385414912904 0.389711431703005          88.181 
              0 0.450000000000006 -0.893028554974585             5.3 
2  1 -1 0
1
-0.866025403784442 -0.446514277487287          -0.225          -14.55 
-0.499999999999994 0.773385414912902 0.389711431703004 95.1958057706539 
2.77555756156289e-17 0.450000000000006 -0.893028554974585 -10.7745139895426 
2  3 -1 0
Curve2ds 0
Curves 72
1 3.9336529462625958 0 0 -0.13052619222005143 0.99144486137381038 0 
8 0 17.999999999999975
1 -14.245162928410917 87.068578529724917 5.758146934692391 -0.22499999999999917 0.38971143170299621 -0.89302855497458822 
1 3.9336529462625958 0 0 -0.13052619222005143 0.99144486137381038 0 
8 0 17.999999999999975
1 -17.956643381134921 93.22897929752267 -10.774513989542562 0.22499999999999898 -0.38971143170299621 0.89302855497458822 
1 3.799616972453125 -1.0181042993164056 0 0.13052619222005188 0.99144486137381038 0 
1 3.799616972453125 -1.0181042993164056 0 0.13052619222005188 0.99144486137381038 0 
8 0 17.999999999999972
1 -13.335966717178994 85.493804497822055 4.8418530653076157 -0.22499999999999881 0.38971143170299627 -0.89302855497458844 
1 3.4066433811349102 -1.9668264731312997 0 0.38268343236509056 0.92387953251128663 0 
1 3.4066433811349102 -1.9668264731312997 0 0.38268343236509056 0.92387953251128663 0 
8 0 17.999999999999979
1 -12.572023608103891 84.95656340144825 4.4149280870909084 -0.22499999999999873 0.38971143170299694 -0.89302855497458811 
1 2.7815126731367226 -2.7815126731367239 0 0.6087614290087211 0.79335334029123505 0 
1 2.7815126731367226 -2.7815126731367239 0 0.6087614290087211 0.79335334029123505 0 
8 0 17.999999999999979
1 -11.666875514317422 84.639062330632328 4.0483192970884625 -0.22499999999999862 0.38971143170299694 -0.89302855497458811 
1 1.9668264731312983 -3.4066433811349111 0 0.79335334029123517 0.60876142900872077 0 
1 1.9668264731312983 -3.4066433811349111 0 0.79335334029123517 0.60876142900872077 0 
8 0 17.999999999999979
1 -10.682206782583187 84.562938458655054 3.7670104784892748 -0.22499999999999853 0.38971143170299694 -0.89302855497458811 
1 1.0181042993164007 -3.7996169724531264 0 0.92387953251128685 0.38268343236508967 0 
1 1.0181042993164007 -3.7996169724531264 0 0.92387953251128685 0.38268343236508967 0 
8 0 17.999999999999986
1 -9.6851209597268468 84.733379501591045 3.5901723623960757 -0.22499999999999853 0.38971143170299755 -0.89302855497458777 
1 -7.226003234395564e-16 -3.9336529462625958 0 0.99144486137381049 0.13052619222005116 0 
1 -7.226003234395564e-16 -3.9336529462625958 0 0.99144486137381049 0.13052619222005116 0 
8 0 17.999999999999986
1 -8.7435677968138421 85.138770184031344 3.5298561741818135 -0.22499999999999865 0.38971143170299755 -0.89302855497458777 
1 -1.018104299316402 -3.7996169724531259 0 0.99144486137381038 -0.13052619222005157 0 
1 -1.018104299316402 -3.7996169724531259 0 0.99144486137381038 -0.13052619222005157 0 
8 0 17.999999999999979
1 -7.9217125859065174 85.751483800907437 3.5901723623960757 -0.22499999999999881 0.38971143170299694 -0.89302855497458811 
1 -1.9668264731312997 -3.4066433811349102 0 0.92387953251128663 -0.38268343236509006 0 
1 -1.9668264731312997 -3.4066433811349102 0 0.92387953251128663 -0.38268343236509006 0 
8 0 17.999999999999986
1 -7.2755634014482506 86.529764931786318 3.7670104784892748 -0.22499999999999892 0.38971143170299755 -0.89302855497458777 
1 -2.7815126731367248 -2.7815126731367217 0 0.79335334029123483 -0.6087614290087211 0 
1 -2.7815126731367248 -2.7815126731367217 0 0.79335334029123483 -0.6087614290087211 0 
8 0 17.999999999999986
1 -6.8491542425478631 87.420575003769002 4.0483192970884634 -0.22499999999999915 0.38971143170299755 -0.89302855497458777 
1 -3.4066433811349119 -1.9668264731312968 0 0.60876142900872032 -0.79335334029123528 0 
1 -3.4066433811349119 -1.9668264731312968 0 0.60876142900872032 -0.79335334029123528 0 
8 0 17.999999999999986
1 -6.6715441887099605 88.363206782583106 4.4149280870909093 -0.22499999999999934 0.38971143170299755 -0.89302855497458777 
1 -3.7996169724531259 -1.0181042993164027 0 0.38268343236508978 -0.92387953251128685 0 
1 -3.7996169724531259 -1.0181042993164027 0 0.38268343236508978 -0.92387953251128685 0 
8 0 17.999999999999986
1 -6.7548370715891046 89.293421470275106 4.8418530653076175 -0.22499999999999953 0.38971143170299755 -0.89302855497458777 
1 -3.9336529462625958 4.8173354895970437e-16 0 0.13052619222005132 -0.99144486137381038 0 
1 -3.9336529462625958 4.8173354895970437e-16 0 0.13052619222005132 -0.99144486137381038 0 
8 0 17.999999999999989
1 -7.0933566188650774 90.147826473131275 5.3000000000000043 -0.22499999999999973 0.38971143170299749 -0.89302855497458755 
1 -3.7996169724531255 1.0181042993164036 0 -0.13052619222005177 -0.99144486137381038 0 
1 -3.7996169724531255 1.0181042993164036 0 -0.13052619222005177 -0.99144486137381038 0 
8 0 17.999999999999989
1 -7.664033282821026 90.868195502177969 5.7581469346923919 -0.22499999999999992 0.38971143170299749 -0.89302855497458755 
1 -3.4066433811349115 1.9668264731312977 0 -0.38268343236508978 -0.92387953251128685 0 
1 -3.4066433811349115 1.9668264731312977 0 -0.38268343236508978 -0.92387953251128685 0 
8 0 17.999999999999989
1 -8.4279763918961272 91.405436598551759 6.1850719129091001 -0.22500000000000017 0.38971143170299749 -0.89302855497458755 
1 -2.781512673136723 2.7815126731367235 0 -0.60876142900872077 -0.79335334029123494 0 
1 -2.781512673136723 2.7815126731367235 0 -0.60876142900872077 -0.79335334029123494 0 
8 0 17.999999999999986
1 -9.3331244856825979 91.722937669367695 6.551680702911546 -0.22500000000000023 0.38971143170299677 -0.89302855497458777 
1 -1.966826473131297 3.4066433811349115 0 -0.79335334029123539 -0.60876142900872043 0 
1 -1.966826473131297 3.4066433811349115 0 -0.79335334029123539 -0.60876142900872043 0 
8 0 17.999999999999989
1 -10.317793217416837 91.799061541344955 6.8329895215107346 -0.22500000000000017 0.38971143170299749 -0.89302855497458755 
1 -1.018104299316402 3.7996169724531259 0 -0.92387953251128663 -0.38268343236508984 0 
1 -1.018104299316402 3.7996169724531259 0 -0.92387953251128663 -0.38268343236508984 0 
8 0 17.999999999999979
1 -11.314879040273173 91.628620498408978 7.0098276376039328 -0.2250000000000002 0.3897114317029961 -0.89302855497458811 
1 2.4086677447985218e-16 3.9336529462625958 0 -0.99144486137381038 -0.13052619222005146 0 
1 2.4086677447985218e-16 3.9336529462625958 0 -0.99144486137381038 -0.13052619222005146 0 
8 0 17.999999999999979
1 -12.256432203186179 91.223229815968679 7.070143825818195 -0.22500000000000012 0.3897114317029961 -0.89302855497458811 
1 1.0181042993164025 3.7996169724531259 0 -0.99144486137381038 0.13052619222005146 0 
1 1.0181042993164025 3.7996169724531259 0 -0.99144486137381038 0.13052619222005146 0 
8 0 17.999999999999986
1 -13.078287414093506 90.610516199092586 7.0098276376039328 -0.22499999999999981 0.38971143170299677 -0.89302855497458777 
1 1.9668264731312983 3.4066433811349111 0 -0.92387953251128674 0.38268343236508989 0 
1 1.9668264731312983 3.4066433811349111 0 -0.92387953251128674 0.38268343236508989 0 
8 0 17.999999999999979
1 -13.724436598551769 89.832235068213706 6.8329895215107337 -0.22499999999999992 0.3897114317029961 -0.89302855497458811 
1 2.7815126731367235 2.781512673136723 0 -0.79335334029123505 0.60876142900872077 0 
1 2.7815126731367235 2.781512673136723 0 -0.79335334029123505 0.60876142900872077 0 
8 0 17.999999999999979
1 -14.150845757452156 88.941424996231021 6.551680702911546 -0.2249999999999997 0.3897114317029961 -0.89302855497458811 
1 3.4066433811349115 1.9668264731312977 0 -0.60876142900872066 0.79335334029123505 0 
1 3.4066433811349115 1.9668264731312977 0 -0.60876142900872066 0.79335334029123505 0 
8 0 17.999999999999975
1 -14.328455811290061 87.998793217416917 6.1850719129091001 -0.22499999999999945 0.38971143170299621 -0.89302855497458822 
1 3.7996169724531259 1.0181042993164025 0 -0.38268343236508984 0.92387953251128685 0 
1 3.7996169724531259 1.0181042993164025 0 -0.38268343236508984 0.92387953251128685 0 
Polygon3D 0
PolygonOnTriangulations 0
Surfaces 74
1 -14.075393381134891 86.506457100645932 4.6302285837690533 -0.91689824481357196 -0.39477537735978807 0.058736786498993249 -0.32965528762300322 0.83203209158687352 0.44615018761821407 -0.22499999999996961 0.38971143170300965 -0.89302855497458988 
1 -14.075393381134891 86.506457100645932 4.6302285837690533 -0.91689824481357196 -0.39477537735978807 0.058736786498993249 -0.32965528762300322 0.83203209158687352 0.44615018761821407 -0.22499999999996961 0.38971143170300965 -0.89302855497458988 
1 -13.906643381134945 86.214173526868748 5.3000000000000043 0.22499999999999859 -0.38971143170300432 0.893028554974585 0.86602540378444393 0.49999999999999101 0 -0.44651427748728434 0.77338541491290325 0.45000000000000523 
1 -17.956643381134921 93.22897929752267 -10.774513989542562 -0.91689824481356463 -0.39477537735979851 0.058736786499034854 -0.32965528762299473 0.83203209158687352 0.44615018761822045 -0.2250000000000115 0.38971143170299916 -0.89302855497458411 
1 -17.956643381134921 93.22897929752267 -10.774513989542562 -0.22499999999999998 0.38971143170300299 -0.89302855497458522 0.86602540378444193 0.49999999999999456 -2.7755575615628914e-17 0.44651427748728761 -0.77338541491290169 -0.45000000000000479 
1 -13.50471671717893 85.786088071599238 4.1720816490766719 -0.80033462798896005 -0.59666948401400544 -0.058736786499039434 -0.55573328426663404 0.70150589936682139 0.44615018761821407 -0.22499999999998588 0.38971143170300737 -0.89302855497458689 
1 -13.50471671717893 85.786088071599238 4.1720816490766719 -0.80033462798896005 -0.59666948401400544 -0.058736786499039434 -0.55573328426663404 0.70150589936682139 0.44615018761821407 -0.22499999999998588 0.38971143170300737 -0.89302855497458689 
1 -17.385966717178967 92.508610268475977 -11.232660924234951 -0.80033462798896104 -0.59666948401400555 -0.058736786499023481 -0.55573328426662649 0.70150589936682339 0.44615018761822028 -0.22500000000000073 0.38971143170300349 -0.89302855497458489 
1 -12.740773608103819 85.248846975225447 3.7451566708599699 -0.62922952888241035 -0.75790155137560877 -0.17220754456429999 -0.74393897598016923 0.52317323939823224 0.4157457896300783 -0.22499999999999357 0.38971143170300448 -0.89302855497458611 
1 -12.740773608103819 85.248846975225447 3.7451566708599699 -0.62922952888241035 -0.75790155137560877 -0.17220754456429999 -0.74393897598016923 0.52317323939823224 0.4157457896300783 -0.22499999999999357 0.38971143170300448 -0.89302855497458611 
1 -16.622023608103863 91.971369172102186 -11.659585902451658 -0.62922952888241768 -0.75790155137560189 -0.17220754456430368 -0.74393897598016334 0.5231732393982359 0.41574578963008424 -0.22499999999999259 0.38971143170301303 -0.89302855497458267 
1 -11.835625514317345 84.93134590440954 3.3785478808575293 -0.41524347723348798 -0.8674838805024967 -0.27394264305392807 -0.88144645589794202 0.30918718774931103 0.35700900313105527 -0.22499999999999842 0.38971143170300049 -0.89302855497458677 
1 -11.835625514317345 84.93134590440954 3.3785478808575293 -0.41524347723348798 -0.8674838805024967 -0.27394264305392807 -0.88144645589794202 0.30918718774931103 0.35700900313105527 -0.22499999999999842 0.38971143170300049 -0.89302855497458677 
1 -15.716875514317392 91.653868101286264 -12.026194692454105 -0.41524347723349764 -0.86748388050248915 -0.27394264305393762 -0.88144645589793802 0.30918718774931619 0.35700900313106027 -0.22499999999999576 0.38971143170301331 -0.89302855497458178 
1 -10.850956782583106 84.85522203243228 3.0972390622583452 -0.17295926883339527 -0.91794861675803452 -0.35700900313105349 -0.9588848165054118 0.074130540211261114 0.27394264305392396 -0.22500000000000064 0.38971143170299455 -0.89302855497458866 
1 -10.850956782583106 84.85522203243228 3.0972390622583452 -0.17295926883339527 -0.91794861675803452 -0.35700900313105349 -0.9588848165054118 0.074130540211261114 0.27394264305392396 -0.22500000000000064 0.38971143170299455 -0.89302855497458866 
1 -14.732206782583155 91.57774422930899 -12.307503511053291 -0.17295926883340684 -0.91794861675802641 -0.35700900313106865 -0.95888481650541002 0.074130540211267484 0.27394264305392785 -0.22499999999999865 0.38971143170301248 -0.89302855497458133 
1 -9.853870959726768 85.025663075368271 2.9204009461651488 0.081111827908991824 -0.90585667176333395 -0.41574578963005476 -0.97097676150012113 -0.16597798113567688 0.17220754456429022 -0.22499999999999826 0.38971143170297246 -0.8930285549745991 
1 -9.853870959726768 85.025663075368271 2.9204009461651488 0.081111827908991824 -0.90585667176333395 -0.41574578963005476 -0.97097676150012113 -0.16597798113567688 0.17220754456429022 -0.22499999999999826 0.38971143170297246 -0.8930285549745991 
1 -13.735120959726817 91.748185272244996 -12.484341627146492 0.081111827908967662 -0.90585667176330598 -0.41574578963012032 -0.9709767615001218 -0.16597798113566972 0.17220754456429255 -0.22500000000000345 0.3897114317030404 -0.89302855497456801 
1 -8.9123177968137686 85.431053757808584 2.8600847579508875 0.32965528762301061 -0.83203209158688574 -0.44615018761818598 -0.91689824481356419 -0.39477537735980117 0.058736786499022989 -0.22499999999998993 0.38971143170297029 -0.89302855497460198 
1 -8.9123177968137686 85.431053757808584 2.8600847579508875 0.32965528762301061 -0.83203209158688574 -0.44615018761818598 -0.91689824481356419 -0.39477537735980117 0.058736786499022989 -0.22499999999998993 0.38971143170297029 -0.89302855497460198 
1 -12.793567796813814 92.153575954685294 -12.544657815360752 0.3296552876229869 -0.83203209158685942 -0.44615018761825215 -0.9168982448135673 -0.39477537735979396 0.05873678649902378 -0.22500000000001197 0.38971143170303357 -0.89302855497456879 
1 -8.090462585906451 86.043767374684677 2.9204009461651488 0.55573328426664448 -0.70150589936684027 -0.44615018761817138 -0.80033462798895616 -0.59666948401401221 -0.058736786499023086 -0.2249999999999738 0.38971143170296302 -0.89302855497460931 
1 -8.090462585906451 86.043767374684677 2.9204009461651488 0.55573328426664448 -0.70150589936684027 -0.44615018761817138 -0.80033462798895616 -0.59666948401401221 -0.058736786499023086 -0.2249999999999738 0.38971143170296302 -0.89302855497460931 
1 -11.971712585906491 92.766289571561373 -12.484341627146492 0.55573328426662005 -0.70150589936681285 -0.4461501876182451 -0.80033462798896127 -0.59666948401400499 -0.058736786499023905 -0.22500000000001558 0.38971143170302325 -0.89302855497457234 
1 -7.4443134014481949 86.822048505563586 3.0972390622583461 0.74393897598017655 -0.52317323939824589 -0.41574578963004816 -0.62922952888240857 -0.75790155137561266 -0.1722075445642903 -0.22499999999997497 0.38971143170297873 -0.89302855497460198 
1 -7.4443134014481949 86.822048505563586 3.0972390622583461 0.74393897598017655 -0.52317323939824589 -0.41574578963004816 -0.62922952888240857 -0.75790155137561266 -0.1722075445642903 -0.22499999999997497 0.38971143170297873 -0.89302855497460198 
1 -11.325563401448228 93.544570702440268 -12.307503511053291 0.7439389759801579 -0.52317323939822735 -0.41574578963010489 -0.62922952888241535 -0.75790155137560622 -0.17220754456429266 -0.22500000000001735 0.38971143170301592 -0.89302855497457523 
1 -7.0179042425478197 87.712858577546271 3.3785478808575302 0.88144645589795079 -0.30918718774932608 -0.35700900313102063 -0.41524347723348687 -0.86748388050249847 -0.27394264305392407 -0.22499999999996617 0.38971143170298456 -0.89302855497460187 
1 -7.0179042425478197 87.712858577546271 3.3785478808575302 0.88144645589795079 -0.30918718774932608 -0.35700900313102063 -0.41524347723348687 -0.86748388050249847 -0.27394264305392407 -0.22499999999996617 0.38971143170298456 -0.89302855497460187 
1 -10.899154242547844 94.435380774422953 -12.026194692454103 0.88144645589793291 -0.30918718774930709 -0.35700900313108125 -0.41524347723349514 -0.86748388050249337 -0.27394264305392796 -0.22500000000002088 0.38971143170301115 -0.89302855497457623 
1 -6.8402941887099304 88.655490356360374 3.7451566708599708 0.9588848165054199 -0.074130540211274715 -0.27394264305389199 -0.17295926883339544 -0.91794861675803374 -0.35700900313105549 -0.22499999999996606 0.38971143170299394 -0.89302855497459765 
1 -6.8402941887099304 88.655490356360374 3.7451566708599708 0.9588848165054199 -0.074130540211274715 -0.27394264305389199 -0.17295926883339544 -0.91794861675803374 -0.35700900313105549 -0.22499999999996606 0.38971143170299394 -0.89302855497459765 
1 -10.721544188709945 95.378012553237056 -11.659585902451656 0.9588848165054058 -0.074130540211259505 -0.27394264305394533 -0.17295926883340443 -0.91794861675803008 -0.35700900313106054 -0.22500000000001907 0.38971143170300537 -0.89302855497457923 
1 -6.9235870715890879 89.585705044052375 4.1720816490766728 0.97097676150012724 0.165977981135666 -0.1722075445642656 0.08111182790898569 -0.90585667176332352 -0.41574578963007847 -0.22499999999997361 0.3897114317030011 -0.89302855497459266 
1 -6.9235870715890879 89.585705044052375 4.1720816490766728 0.97097676150012724 0.165977981135666 -0.1722075445642656 0.08111182790898569 -0.90585667176332352 -0.41574578963007847 -0.22499999999997361 0.3897114317030011 -0.89302855497459266 
1 -10.804837071589093 96.308227240929057 -11.232660924234949 0.97097676150011969 0.1659779811356735 -0.17220754456430154 0.081111827908976572 -0.90585667176332163 -0.41574578963008429 -0.22500000000000991 0.38971143170300226 -0.893028554974583 
1 -7.2621066188650731 90.440110046908543 4.6302285837690533 0.91689824481356819 0.3947753773597944 -0.058736786499007404 0.32965528762300339 -0.8320320915868733 -0.44615018761821418 -0.22499999999998432 0.38971143170300349 -0.89302855497458888 
1 -7.2621066188650731 90.440110046908543 4.6302285837690533 0.91689824481356819 0.3947753773597944 -0.058736786499007404 0.32965528762300339 -0.8320320915868733 -0.44615018761821418 -0.22499999999998432 0.38971143170300349 -0.89302855497458888 
1 -11.14335661886507 97.162632243785225 -10.774513989542562 0.91689824481356674 0.39477537735979495 -0.058736786499026673 0.32965528762299473 -0.83203209158687352 -0.44615018761822045 -0.22500000000000309 0.38971143170300276 -0.89302855497458455 
1 -7.8327832828210333 91.160479075955237 5.0883755184614339 0.80033462798895783 0.59666948401400921 0.058736786499030393 0.55573328426663393 -0.70150589936682151 -0.44615018761821401 -0.22499999999999387 0.38971143170300132 -0.89302855497458755 
1 -7.8327832828210333 91.160479075955237 5.0883755184614339 0.80033462798895783 0.59666948401400921 0.058736786499030393 0.55573328426663393 -0.70150589936682151 -0.44615018761821401 -0.22499999999999387 0.38971143170300132 -0.89302855497458755 
1 -11.714033282821022 97.883001272831919 -10.316367054850176 0.80033462798896526 0.59666948401399833 0.058736786499039739 0.55573328426662638 -0.7015058993668235 -0.44615018761822034 -0.22499999999998604 0.38971143170301437 -0.89302855497458367 
1 -8.5967263918961443 91.697720172329028 5.5153004966781358 0.62922952888240913 0.75790155137561155 0.17220754456429196 0.74393897598016856 -0.5231732393982329 -0.41574578963007858 -0.22499999999999901 0.38971143170299816 -0.89302855497458755 
1 -8.5967263918961443 91.697720172329028 5.5153004966781358 0.62922952888240913 0.75790155137561155 0.17220754456429196 0.74393897598016856 -0.5231732393982329 -0.41574578963007858 -0.22499999999999901 0.38971143170299816 -0.89302855497458755 
1 -12.477976391896128 98.42024236920571 -9.8894420766334665 0.62922952888241823 0.75790155137560167 0.17220754456430273 0.7439389759801629 -0.52317323939823657 -0.41574578963008424 -0.22499999999999287 0.38971143170301242 -0.89302855497458278 
1 -9.5018744856826185 92.015221243144936 5.8819092866805773 0.41524347723348037 0.86748388050251002 0.27394264305389748 0.88144645589794191 -0.30918718774931114 -0.35700900313105532 -0.22500000000001269 0.38971143170297079 -0.8930285549745961 
1 -9.5018744856826185 92.015221243144936 5.8819092866805773 0.41524347723348037 0.86748388050251002 0.27394264305389748 0.88144645589794191 -0.30918718774931114 -0.35700900313105532 -0.22500000000001269 0.38971143170297079 -0.8930285549745961 
1 -13.383124485682599 98.737743440021632 -9.5228332866310215 0.41524347723350175 0.86748388050248193 0.27394264305395377 0.88144645589793813 -0.30918718774931631 -0.35700900313106032 -0.22499999999998815 0.38971143170302908 -0.89302855497457678 
1 -10.486543217416859 92.091345115122195 6.1632181052797614 0.1729592688333888 0.91794861675804518 0.3570090031310294 0.95888481650541169 -0.074130540211260768 -0.2739426430539238 -0.22500000000000533 0.38971143170296974 -0.89302855497459843 
1 -10.486543217416859 92.091345115122195 6.1632181052797614 0.1729592688333888 0.91794861675804518 0.3570090031310294 0.95888481650541169 -0.074130540211260768 -0.2739426430539238 -0.22500000000000533 0.38971143170296974 -0.89302855497459843 
1 -14.367793217416837 98.813867311998905 -9.241524468031832 0.17295926883341489 0.91794861675801187 0.35700900313110229 0.95888481650541013 -0.074130540211267124 -0.27394264305392768 -0.22499999999999212 0.3897114317030469 -0.89302855497456812 
1 -11.483629040273193 91.920904072186204 6.3400562213729579 -0.081111827908995099 0.90585667176334017 0.41574578963004061 0.97097676150012113 0.16597798113567661 -0.17220754456429024 -0.22499999999999687 0.38971143170295813 -0.89302855497460565 
1 -11.483629040273193 91.920904072186204 6.3400562213729579 -0.081111827908995099 0.90585667176334017 0.41574578963004061 0.97097676150012113 0.16597798113567661 -0.17220754456429024 -0.22499999999999687 0.38971143170295813 -0.89302855497460565 
1 -15.364879040273172 98.6434262690629 -9.0646863519386329 -0.081111827908970466 0.90585667176331119 0.41574578963010828 0.97097676150012191 0.16597798113566953 -0.17220754456429269 -0.22500000000000239 0.38971143170302824 -0.89302855497457356 
1 -12.425182203186194 91.515513389745891 6.4003724095872192 -0.32965528762301527 0.8320320915868944 0.44615018761816627 0.9168982448135643 0.39477537735980101 -0.058736786499023141 -0.22499999999998271 0.38971143170295192 -0.89302855497461175 
1 -12.425182203186194 91.515513389745891 6.4003724095872192 -0.32965528762301527 0.8320320915868944 0.44615018761816627 0.9168982448135643 0.39477537735980101 -0.058736786499023141 -0.22499999999998271 0.38971143170295192 -0.89302855497461175 
1 -16.306432203186176 98.238035586622601 -9.0043701637243725 -0.32965528762298613 0.83203209158685876 0.44615018761825415 0.91689824481356752 0.39477537735979368 -0.058736786499023953 -0.22500000000001269 0.3897114317030354 -0.8930285549745679 
1 -13.247037414093512 90.902799772869798 6.3400562213729579 -0.5557332842666447 0.70150589936684071 0.44615018761817038 0.80033462798895616 0.5966694840140121 0.058736786499023003 -0.22499999999997317 0.38971143170296213 -0.89302855497460976 
1 -13.247037414093512 90.902799772869798 6.3400562213729579 -0.5557332842666447 0.70150589936684071 0.44615018761817038 0.80033462798895616 0.5966694840140121 0.058736786499023003 -0.22499999999997317 0.38971143170296213 -0.89302855497460976 
1 -17.128287414093499 97.625321969746523 -9.0646863519386329 -0.55573328426661572 0.70150589936680552 0.44615018761826175 0.80033462798896138 0.5966694840140051 0.058736786499023842 -0.22500000000002607 0.38971143170303635 -0.89302855497456402 
1 -13.893186598551768 90.124518641990889 6.1632181052797614 -0.74393897598018299 0.52317323939825711 0.41574578963002218 0.62922952888240846 0.75790155137561266 0.17220754456429022 -0.22499999999995349 0.38971143170296352 -0.89302855497461409 
1 -13.893186598551768 90.124518641990889 6.1632181052797614 -0.74393897598018299 0.52317323939825711 0.41574578963002218 0.62922952888240846 0.75790155137561266 0.17220754456429022 -0.22499999999995349 0.38971143170296352 -0.89302855497461409 
1 -17.774436598551763 96.847040838867628 -9.2415244680318338 -0.74393897598015213 0.52317323939821792 0.41574578963012676 0.62922952888241568 0.75790155137560622 0.17220754456429263 -0.22500000000003545 0.38971143170302869 -0.8930285549745649 
1 -14.319595757452142 89.233708570008204 5.8819092866805773 -0.88144645589795478 0.30918718774933363 0.35700900313100403 0.41524347723348715 0.86748388050249836 0.27394264305392402 -0.22499999999994966 0.38971143170297884 -0.89302855497460842 
1 -14.319595757452142 89.233708570008204 5.8819092866805773 -0.88144645589795478 0.30918718774933363 0.35700900313100403 0.41524347723348715 0.86748388050249836 0.27394264305392402 -0.22499999999994966 0.38971143170297884 -0.89302855497460842 
1 -18.200845757452147 95.956230766884943 -9.5228332866310215 -0.88144645589792869 0.30918718774930065 0.35700900313109679 0.41524347723349558 0.86748388050249314 0.2739426430539279 -0.22500000000003609 0.38971143170301664 -0.89302855497457012 
1 -14.497205811290033 88.291076791194101 5.5153004966781358 -0.95888481650542301 0.074130540211280668 0.27394264305387922 0.1729592688333958 0.91794861675803374 0.35700900313105538 -0.22499999999995224 0.38971143170299283 -0.89302855497460154 
1 -14.497205811290033 88.291076791194101 5.5153004966781358 -0.95888481650542301 0.074130540211280668 0.27394264305387922 0.1729592688333958 0.91794861675803374 0.35700900313105538 -0.22499999999995224 0.38971143170299283 -0.89302855497460154 
1 -18.378455811290046 95.013598988070839 -9.8894420766334665 -0.95888481650540325 0.074130540211255577 0.2739426430539551 0.17295926883340471 0.91794861675802997 0.35700900313106038 -0.22500000000002948 0.38971143170300621 -0.89302855497457634 
1 -18.295162928410896 94.083384300378839 -10.316367054850176 -0.97097676150011758 -0.16597798113567699 0.17220754456430967 -0.081111827908976558 0.90585667176332174 0.41574578963008424 -0.22500000000001874 0.38971143170300065 -0.89302855497458156 
1 -14.413912928410875 87.3608621035021 5.0883755184614339 -0.97097676150013079 -0.16597798113565965 0.17220754456425122 -0.081111827908985634 0.90585667176332352 0.41574578963007852 -0.22499999999995793 0.38971143170300382 -0.89302855497459543 
1 -14.413912928410875 87.3608621035021 5.0883755184614339 -0.97097676150013079 -0.16597798113565965 0.17220754456425122 -0.081111827908985634 0.90585667176332352 0.41574578963007852 -0.22499999999995793 0.38971143170300382 -0.89302855497459543 
Triangulations 0

TShapes 175
Ve
1e-07
3.9336529462626 0 0
0 0

0101101
*
Ve
1e-07
3.79961697245313 1.0181042993164 0
0 0

0101101
*
Ed
 1e-07 1 1 0
1  1 0 0 1.02688948118169
4 C0 2 2 3 2
0

0101000
+175 0 -174 0 *
Ve
1e-07
3.79961697245313 1.0181042993164 0
0 0

0101101
*
Ed
 1e-07 1 1 0
1  2 0 0 18
0

0101000
+174 1 -172 3 *
Ve
1e-07
3.9336529462626 0 0
0 0

0101101
*
Ed
 1e-07 1 1 0
1  3 0 0 1.02688948118169
4 C0 4 4 5 4
0

0101000
+170 0 -172 0 *
Ed
 1e-07 1 1 0
1  4 0 0 18
0

0101000
+170 3 -175 1 *
Wi

0101100
+173 1 +171 0 -169 3 +168 0 *
Fa
0  0 1 0

0111000
+167 0 *
Ve
1e-07
3.79961697245313 -1.01810429931641 0
0 0

0101101
*
Ed
 1e-07 1 1 0
1  5 0 0 1.02688948118169
4 C0 7 2 3 2
0

0101000
+165 0 -175 0 *
Ve
1e-07
3.79961697245313 -1.01810429931641 0
0 0

0101101
*
Ed
 1e-07 1 1 0
1  6 0 0 1.02688948118169
4 C0 8 4 5 4
0

0101000
+163 0 -170 0 *
Ed
 1e-07 1 1 0
1  7 0 0 18
0

0101000
+165 1 -163 3 *
Wi

0101100
+164 1 -168 0 -162 3 -161 0 *
Fa
0  0 6 0

0111000
+160 0 *
Ve
1e-07
3.40664338113491 -1.9668264731313 0
0 0

0101101
*
Ed
 1e-07 1 1 0
1  8 0 0 1.02688948118169
4 C0 10 2 3 2
0

0101000
+158 0 -165 0 *
Ve
1e-07
3.40664338113491 -1.9668264731313 0
0 0

0101101
*
Ed
 1e-07 1 1 0
1  9 0 0 1.02688948118169
4 C0 11 4 5 4
0

0101000
+156 0 -163 0 *
Ed
 1e-07 1 1 0
1  10 0 0 18
0

0101000
+158 1 -156 3 *
Wi

0101100
+157 1 +161 0 -155 3 -154 0 *
Fa
0  0 9 0

0111000
+153 0 *
Ve
1e-07
2.78151267313672 -2.78151267313672 0
0 0

0101101
*
Ed
 1e-07 1 1 0
1  11 0 0 1.02688948118169
4 C0 13 2 3 2
0

0101000
+151 0 -158 0 *
Ve
1e-07
2.78151267313672 -2.78151267313672 0
0 0

0101101
*
Ed
 1e-07 1 1 0
1  12 0 0 1.02688948118169
4 C0 14 4 5 4
0

0101000
+149 0 -156 0 *
Ed
 1e-07 1 1 0
1  13 0 0 18
0

0101000
+151 1 -149 3 *
Wi

0101100
+150 1 +154 0 -148 3 -147 0 *
Fa
0  0 12 0

0111000
+146 0 *
Ve
1e-07
1.9668264731313 -3.40664338113491 0
0 0

0101101
*
Ed
 1e-07 1 1 0
1  14 0 0 1.02688948118169
4 C0 16 2 3 2
0

0101000
+144 0 -151 0 *
Ve
1e-07
1.9668264731313 -3.40664338113491 0
0 0

0101101
*
Ed
 1e-07 1 1 0
1  15 0 0 1.02688948118169
4 C0 17 4 5 4
0

0101000
+142 0 -149 0 *
Ed
 1e-07 1 1 0
1  16 0 0 18
0

0101000
+144 1 -142 3 *
Wi

0101100
+143 1 +147 0 -141 3 -140 0 *
Fa
0  0 15 0

0111000
+139 0 *
Ve
1e-07
1.0181042993164 -3.79961697245313 0
0 0

0101101
*
Ed
 1e-07 1 1 0
1  17 0 0 1.02688948118169
4 C0 19 2 3 2
0

0101000
+137 0 -144 0 *
Ve
1e-07
1.0181042993164 -3.79961697245313 0
0 0

0101101
*
Ed
 1e-07 1 1 0
1  18 0 0 1.02688948118169
4 C0 20 4 5 4
0

0101000
+135 0 -142 0 *
Ed
 1e-07 1 1 0
1  19 0 0 18
0

0101000
+137 1 -135 3 *
Wi

0101100
+136 1 +140 0 -134 3 -133 0 *
Fa
0  0 18 0

0111000
+132 0 *
Ve
1e-07
-7.22600323439556e-16 -3.9336529462626 0
0 0

0101101
*
Ed
 1e-07 1 1 0
1  20 0 0 1.02688948118169
4 C0 22 2 3 2
0

0101000
+130 0 -137 0 *
Ve
1e-07
-7.22600323439556e-16 -3.9336529462626 0
0 0

0101101
*
Ed
 1e-07 1 1 0
1  21 0 0 1.02688948118169
4 C0 23 4 5 4
0

0101000
+128 0 -135 0 *
Ed
 1e-07 1 1 0
1  22 0 0 18
0

0101000
+130 1 -128 3 *
Wi

0101100
+129 1 +133 0 -127 3 -126 0 *
Fa
0  0 21 0

0111000
+125 0 *
Ve
1e-07
-1.0181042993164 -3.79961697245313 0
0 0

0101101
*
Ed
 1e-07 1 1 0
1  23 0 0 1.02688948118169
4 C0 25 2 3 2
0

0101000
+123 0 -130 0 *
Ve
1e-07
-1.0181042993164 -3.79961697245313 0
0 0

0101101
*
Ed
 1e-07 1 1 0
1  24 0 0 1.02688948118169
4 C0 26 4 5 4
0

0101000
+121 0 -128 0 *
Ed
 1e-07 1 1 0
1  25 0 0 18
0

0101000
+123 1 -121 3 *
Wi

0101100
+122 1 +126 0 -120 3 -119 0 *
Fa
0  0 24 0

0111000
+118 0 *
Ve
1e-07
-1.9668264731313 -3.40664338113491 0
0 0

0101101
*
Ed
 1e-07 1 1 0
1  26 0 0 1.02688948118169
4 C0 28 2 3 2
0

0101000
+116 0 -123 0 *
Ve
1e-07
-1.9668264731313 -3.40664338113491 0
0 0

0101101
*
Ed
 1e-07 1 1 0
1  27 0 0 1.02688948118169
4 C0 29 4 5 4
0

0101000
+114 0 -121 0 *
Ed
 1e-07 1 1 0
1  28 0 0 18
0

0101000
+116 1 -114 3 *
Wi

0101100
+115 1 +119 0 -113 3 -112 0 *
Fa
0  0 27 0

0111000
+111 0 *
Ve
1e-07
-2.78151267313672 -2.78151267313672 0
0 0

0101101
*
Ed
 1e-07 1 1 0
1  29 0 0 1.02688948118169
4 C0 31 2 3 2
0

0101000
+109 0 -116 0 *
Ve
1e-07
-2.78151267313672 -2.78151267313672 0
0 0

0101101
*
Ed
 1e-07 1 1 0
1  30 0 0 1.02688948118169
4 C0 32 4 5 4
0

0101000
+107 0 -114 0 *
Ed
 1e-07 1 1 0
1  31 0 0 18
0

0101000
+109 1 -107 3 *
Wi

0101100
+108 1 +112 0 -106 3 -105 0 *
Fa
0  0 30 0

0111000
+104 0 *
Ve
1e-07
-3.40664338113491 -1.9668264731313 0
0 0

0101101
*
Ed
 1e-07 1 1 0
1  32 0 0 1.02688948118169
4 C0 34 2 3 2
0

0101000
+102 0 -109 0 *
Ve
1e-07
-3.40664338113491 -1.9668264731313 0
0 0

0101101
*
Ed
 1e-07 1 1 0
1  33 0 0 1.02688948118169
4 C0 35 4 5 4
0

0101000
+100 0 -107 0 *
Ed
 1e-07 1 1 0
1  34 0 0 18
0

0101000
+102 1 -100 3 *
Wi

0101100
+101 1 +105 0 -99 3 -98 0 *
Fa
0  0 33 0

0111000
+97 0 *
Ve
1e-07
-3.79961697245313 -1.0181042993164 0
0 0

0101101
*
Ed
 1e-07 1 1 0
1  35 0 0 1.02688948118169
4 C0 37 2 3 2
0

0101000
+95 0 -102 0 *
Ve
1e-07
-3.79961697245313 -1.0181042993164 0
0 0

0101101
*
Ed
 1e-07 1 1 0
1  36 0 0 1.02688948118169
4 C0 38 4 5 4
0

0101000
+93 0 -100 0 *
Ed
 1e-07 1 1 0
1  37 0 0 18
0

0101000
+95 1 -93 3 *
Wi

0101100
+94 1 +98 0 -92 3 -91 0 *
Fa
0  0 36 0

0111000
+90 0 *
Ve
1e-07
-3.9336529462626 4.81733548959704e-16 0
0 0

0101101
*
Ed
 1e-07 1 1 0
1  38 0 0 1.02688948118169
4 C0 40 2 3 2
0

0101000
+88 0 -95 0 *
Ve
1e-07
-3.9336529462626 4.81733548959704e-16 0
0 0

0101101
*
Ed
 1e-07 1 1 0
1  39 0 0 1.02688948118169
4 C0 41 4 5 4
0

0101000
+86 0 -93 0 *
Ed
 1e-07 1 1 0
1  40 0 0 18
0

0101000
+88 1 -86 3 *
Wi

0101100
+87 1 +91 0 -85 3 -84 0 *
Fa
0  0 39 0

0111000
+83 0 *
Ve
1e-07
-3.79961697245313 1.0181042993164 0
0 0

0101101
*
Ed
 1e-07 1 1 0
1  41 0 0 1.02688948118169
4 C0 43 2 3 2
0

0101000
+81 0 -88 0 *
Ve
1e-07
-3.79961697245313 1.0181042993164 0
0 0

0101101
*
Ed
 1e-07 1 1 0
1  42 0 0 1.02688948118169
4 C0 44 4 5 4
0

0101000
+79 0 -86 0 *
Ed
 1e-07 1 1 0
1  43 0 0 18
0

0101000
+81 1 -79 3 *
Wi

0101100
+80 1 +84 0 -78 3 -77 0 *
Fa
0  0 42 0

0111000
+76 0 *
Ve
1e-07
-3.40664338113491 1.9668264731313 0
0 0

0101101
*
Ed
 1e-07 1 1 0
1  44 0 0 1.02688948118169
4 C0 46 2 3 2
0

0101000
+74 0 -81 0 *
Ve
1e-07
-3.40664338113491 1.9668264731313 0
0 0

0101101
*
Ed
 1e-07 1 1 0
1  45 0 0 1.02688948118169
4 C0 47 4 5 4
0

0101000
+72 0 -79 0 *
Ed
 1e-07 1 1 0
1  46 0 0 18
0

0101000
+74 1 -72 3 *
Wi

0101100
+73 1 +77 0 -71 3 -70 0 *
Fa
0  0 45 0

0111000
+69 0 *
Ve
1e-07
-2.78151267313672 2.78151267313672 0
0 0

0101101
*
Ed
 1e-07 1 1 0
1  47 0 0 1.02688948118169
4 C0 49 2 3 2
0

0101000
+67 0 -74 0 *
Ve
1e-07
-2.78151267313672 2.78151267313672 0
0 0

0101101
*
Ed
 1e-07 1 1 0
1  48 0 0 1.02688948118169
4 C0 50 4 5 4
0

0101000
+65 0 -72 0 *
Ed
 1e-07 1 1 0
1  49 0 0 18
0

0101000
+67 1 -65 3 *
Wi

0101100
+66 1 +70 0 -64 3 -63 0 *
Fa
0  0 48 0

0111000
+62 0 *
Ve
1e-07
-1.9668264731313 3.40664338113491 0
0 0

0101101
*
Ed
 1e-07 1 1 0
1  50 0 0 1.02688948118169
4 C0 52 2 3 2
0

0101000
+60 0 -67 0 *
Ve
1e-07
-1.9668264731313 3.40664338113491 0
0 0

0101101
*
Ed
 1e-07 1 1 0
1  51 0 0 1.02688948118169
4 C0 53 4 5 4
0

0101000
+58 0 -65 0 *
Ed
 1e-07 1 1 0
1  52 0 0 18
0

0101000
+60 1 -58 3 *
Wi

0101100
+59 1 +63 0 -57 3 -56 0 *
Fa
0  0 51 0

0111000
+55 0 *
Ve
1e-07
-1.0181042993164 3.79961697245313 0
0 0

0101101
*
Ed
 1e-07 1 1 0
1  53 0 0 1.02688948118169
4 C0 55 2 3 2
0

0101000
+53 0 -60 0 *
Ve
1e-07
-1.0181042993164 3.79961697245313 0
0 0

0101101
*
Ed
 1e-07 1 1 0
1  54 0 0 1.02688948118169
4 C0 56 4 5 4
0

0101000
+51 0 -58 0 *
Ed
 1e-07 1 1 0
1  55 0 0 18
0

0101000
+53 1 -51 3 *
Wi

0101100
+52 1 +56 0 -50 3 -49 0 *
Fa
0  0 54 0

0111000
+48 0 *
Ve
1e-07
2.40866774479852e-16 3.9336529462626 0
0 0

0101101
*
Ed
 1e-07 1 1 0
1  56 0 0 1.02688948118169
4 C0 58 2 3 2
0

0101000
+46 0 -53 0 *
Ve
1e-07
2.40866774479852e-16 3.9336529462626 0
0 0

0101101
*
Ed
 1e-07 1 1 0
1  57 0 0 1.02688948118169
4 C0 59 4 5 4
0

0101000
+44 0 -51 0 *
Ed
 1e-07 1 1 0
1  58 0 0 18
0

0101000
+46 1 -44 3 *
Wi

0101100
+45 1 +49 0 -43 3 -42 0 *
Fa
0  0 57 0

0111000
+41 0 *
Ve
1e-07
1.0181042993164 3.79961697245313 0
0 0

0101101
*
Ed
 1e-07 1 1 0
1  59 0 0 1.02688948118169
4 C0 61 2 3 2
0

0101000
+39 0 -46 0 *
Ve
1e-07
1.0181042993164 3.79961697245313 0
0 0

0101101
*
Ed
 1e-07 1 1 0
1  60 0 0 1.02688948118169
4 C0 62 4 5 4
0

0101000
+37 0 -44 0 *
Ed
 1e-07 1 1 0
1  61 0 0 18
0

0101000
+39 1 -37 3 *
Wi

0101100
+38 1 +42 0 -36 3 -35 0 *
Fa
0  0 60 0

0111000
+34 0 *
Ve
1e-07
1.9668264731313 3.40664338113491 0
0 0

0101101
*
Ed
 1e-07 1 1 0
1  62 0 0 1.02688948118169
4 C0 64 2 3 2
0

0101000
+32 0 -39 0 *
Ve
1e-07
1.9668264731313 3.40664338113491 0
0 0

0101101
*
Ed
 1e-07 1 1 0
1  63 0 0 1.02688948118169
4 C0 65 4 5 4
0

0101000
+30 0 -37 0 *
Ed
 1e-07 1 1 0
1  64 0 0 18
0

0101000
+32 1 -30 3 *
Wi

0101100
+31 1 +35 0 -29 3 -28 0 *
Fa
0  0 63 0

0111000
+27 0 *
Ve
1e-07
2.78151267313672 2.78151267313672 0
0 0

0101101
*
Ed
 1e-07 1 1 0
1  65 0 0 1.02688948118169
4 C0 67 2 3 2
0

0101000
+25 0 -32 0 *
Ve
1e-07
2.78151267313672 2.78151267313672 0
0 0

0101101
*
Ed
 1e-07 1 1 0
1  66 0 0 1.02688948118169
4 C0 68 4 5 4
0

0101000
+23 0 -30 0 *
Ed
 1e-07 1 1 0
1  67 0 0 18
0

0101000
+25 1 -23 3 *
Wi

0101100
+24 1 +28 0 -22 3 -21 0 *
Fa
0  0 66 0

0111000
+20 0 *
Ve
1e-07
3.40664338113491 1.9668264731313 0
0 0

0101101
*
Ed
 1e-07 1 1 0
1  68 0 0 1.02688948118169
4 C0 70 2 3 2
0

0101000
+18 0 -25 0 *
Ve
1e-07
3.40664338113491 1.9668264731313 0
0 0

0101101
*
Ed
 1e-07 1 1 0
1  69 0 0 1.02688948118169
4 C0 71 4 5 4
0

0101000
+16 0 -23 0 *
Ed
 1e-07 1 1 0
1  70 0 0 18
0

0101000
+18 1 -16 3 *
Wi

0101100
+17 1 +21 0 -15 3 -14 0 *
Fa
0  0 69 0

0111000
+13 0 *
Ed
 1e-07 1 1 0
1  71 0 0 1.02688948118169
4 C0 72 4 5 4
0

0101000
+172 0 -16 0 *
Wi

0101100
+169 3 +11 3 +15 3 +22 3 +29 3 +36 3 +43 3 +50 3 +57 3 +64 3 
+71 3 +78 3 +85 3 +92 3 +99 3 +106 3 +113 3 +120 3 +127 3 +134 3 
+141 3 +148 3 +155 3 +162 3 *
Fa
0  1e-07 5 0

0101000
+10 0 *
Ed
 1e-07 1 1 0
1  72 0 0 1.02688948118169
4 C0 74 2 3 2
0

0101000
+174 0 -18 0 *
Wi

0101100
+8 1 +14 0 -11 3 -171 0 *
Fa
0  0 73 0

0111000
+7 0 *
Wi

0101100
+173 0 +8 0 +17 0 +24 0 +31 0 +38 0 +45 0 +52 0 +59 0 +66 0 
+73 0 +80 0 +87 0 +94 0 +101 0 +108 0 +115 0 +122 0 +129 0 +136 0 
+143 0 +150 0 +157 0 +164 0 *
Fa
0  1e-07 3 0

0101000
-5 1 *
Sh

0101100
+166 0 +159 0 +152 0 +145 0 +138 0 +131 0 +124 0 +117 0 +110 0 +103 0 
+96 0 +89 0 +82 0 +75 0 +68 0 +61 0 +54 0 +47 0 +40 0 +33 0 
+26 0 +19 0 +12 0 +9 0 +6 0 +4 0 *
So

0100000
+3 0 *
Co

1100000
+2 0 *

+1 0 