DBRep_DrawableShape

CASCADE Topology V3, (c) Open Cascade
Locations 8
1
              1               0               0             -20 
              0               1               0              20 
              0               0               1             3.8 
1
              1               0               0              -0 
              0               1               0              -0 
              0               0               1            -1.5 
1
              1               0               0              20 
              0               1               0              20 
              0               0               1             3.8 
1
              1               0               0              -0 
              0               1               0              -0 
              0               0               1            -1.5 
1
              1               0               0             -20 
              0               1               0              70 
              0               0               1             3.8 
1
              1               0               0              -0 
              0               1               0              -0 
              0               0               1            -1.5 
1
              1               0               0              20 
              0               1               0              70 
              0               0               1             3.8 
1
              1               0               0              -0 
              0               1               0              -0 
              0               0               1            -1.5 
Curve2ds 24
1 0 3 1 0 
2 0 0 1 0 -0 1 5
1 6.2831853071795862 -0 0 1 
1 0 -0 0 1 
1 0 0 1 0 
2 0 0 1 0 -0 1 5
1 0 3 1 0 
2 0 0 1 0 -0 1 5
1 6.2831853071795862 -0 0 1 
1 0 -0 0 1 
1 0 0 1 0 
2 0 0 1 0 -0 1 5
1 0 3 1 0 
2 0 0 1 0 -0 1 5
1 6.2831853071795862 -0 0 1 
1 0 -0 0 1 
1 0 0 1 0 
2 0 0 1 0 -0 1 5
1 0 3 1 0 
2 0 0 1 0 -0 1 5
1 6.2831853071795862 -0 0 1 
1 0 -0 0 1 
1 0 0 1 0 
2 0 0 1 0 -0 1 5
Curves 12
2 0 0 3 0 0 1 1 0 -0 -0 1 0 5
1 5 -1.2246467991473533e-15 0 0 0 1 
2 0 0 0 0 0 1 1 0 -0 -0 1 0 5
2 0 0 3 0 0 1 1 0 -0 -0 1 0 5
1 5 -1.2246467991473533e-15 0 0 0 1 
2 0 0 0 0 0 1 1 0 -0 -0 1 0 5
2 0 0 3 0 0 1 1 0 -0 -0 1 0 5
1 5 -1.2246467991473533e-15 0 0 0 1 
2 0 0 0 0 0 1 1 0 -0 -0 1 0 5
2 0 0 3 0 0 1 1 0 -0 -0 1 0 5
1 5 -1.2246467991473533e-15 0 0 0 1 
2 0 0 0 0 0 1 1 0 -0 -0 1 0 5
Polygon3D 0
PolygonOnTriangulations 0
Surfaces 12
2 0 0 0 0 0 1 1 0 -0 -0 1 0 5
1 0 0 3 0 0 1 1 0 -0 -0 1 0 
1 0 0 0 0 0 1 1 0 -0 -0 1 0 
2 0 0 0 0 0 1 1 0 -0 -0 1 0 5
1 0 0 3 0 0 1 1 0 -0 -0 1 0 
1 0 0 0 0 0 1 1 0 -0 -0 1 0 
2 0 0 0 0 0 1 1 0 -0 -0 1 0 5
1 0 0 3 0 0 1 1 0 -0 -0 1 0 
1 0 0 0 0 0 1 1 0 -0 -0 1 0 
2 0 0 0 0 0 1 1 0 -0 -0 1 0 5
1 0 0 3 0 0 1 1 0 -0 -0 1 0 
1 0 0 0 0 0 1 1 0 -0 -0 1 0 
Triangulations 0

TShapes 57
Ve
1e-07
5 -1.22464679914735e-15 3
0 0

0101101
*
Ed
 1e-07 1 1 0
1  1 0 0 6.28318530717959
2  1 1 0 0 6.28318530717959
2  2 2 0 0 6.28318530717959
0

0101000
+57 0 -57 0 *
Ve
1e-07
5 -1.22464679914735e-15 0
0 0

0101101
*
Ed
 1e-07 1 1 0
1  2 0 0 3
3  3 4CN 1 0 0 3
0

0101000
-57 0 +55 0 *
Ed
 1e-07 1 1 0
1  3 0 0 6.28318530717959
2  5 1 0 0 6.28318530717959
2  6 3 0 0 6.28318530717959
0

0101000
+55 0 -55 0 *
Wi

0101100
-56 0 +54 0 +53 0 -54 0 *
Fa
0  1e-07 1 0

0111000
+52 0 *
Wi

0101100
+56 0 *
Fa
0  1e-07 2 0

0111000
+50 0 *
Wi

0101100
-53 0 *
Fa
0  1e-07 3 0

0111000
-48 0 *
Sh

0101100
+51 0 +49 0 -47 0 *
So

0100000
+46 0 *
Co

0100000
+45 2 *
Ve
1e-07
5 -1.22464679914735e-15 3
0 0

0101101
*
Ed
 1e-07 1 1 0
1  4 0 0 6.28318530717959
2  7 4 0 0 6.28318530717959
2  8 5 0 0 6.28318530717959
0

0101000
+43 0 -43 0 *
Ve
1e-07
5 -1.22464679914735e-15 0
0 0

0101101
*
Ed
 1e-07 1 1 0
1  5 0 0 3
3  9 10CN 4 0 0 3
0

0101000
-43 0 +41 0 *
Ed
 1e-07 1 1 0
1  6 0 0 6.28318530717959
2  11 4 0 0 6.28318530717959
2  12 6 0 0 6.28318530717959
0

0101000
+41 0 -41 0 *
Wi

0101100
-42 0 +40 0 +39 0 -40 0 *
Fa
0  1e-07 4 0

0111000
+38 0 *
Wi

0101100
+42 0 *
Fa
0  1e-07 5 0

0111000
+36 0 *
Wi

0101100
-39 0 *
Fa
0  1e-07 6 0

0111000
-34 0 *
Sh

0101100
+37 0 +35 0 -33 0 *
So

0100000
+32 0 *
Co

0100000
+31 4 *
Ve
1e-07
5 -1.22464679914735e-15 3
0 0

0101101
*
Ed
 1e-07 1 1 0
1  7 0 0 6.28318530717959
2  13 7 0 0 6.28318530717959
2  14 8 0 0 6.28318530717959
0

0101000
+29 0 -29 0 *
Ve
1e-07
5 -1.22464679914735e-15 0
0 0

0101101
*
Ed
 1e-07 1 1 0
1  8 0 0 3
3  15 16CN 7 0 0 3
0

0101000
-29 0 +27 0 *
Ed
 1e-07 1 1 0
1  9 0 0 6.28318530717959
2  17 7 0 0 6.28318530717959
2  18 9 0 0 6.28318530717959
0

0101000
+27 0 -27 0 *
Wi

0101100
-28 0 +26 0 +25 0 -26 0 *
Fa
0  1e-07 7 0

0111000
+24 0 *
Wi

0101100
+28 0 *
Fa
0  1e-07 8 0

0111000
+22 0 *
Wi

0101100
-25 0 *
Fa
0  1e-07 9 0

0111000
-20 0 *
Sh

0101100
+23 0 +21 0 -19 0 *
So

0100000
+18 0 *
Co

0100000
+17 6 *
Ve
1e-07
5 -1.22464679914735e-15 3
0 0

0101101
*
Ed
 1e-07 1 1 0
1  10 0 0 6.28318530717959
2  19 10 0 0 6.28318530717959
2  20 11 0 0 6.28318530717959
0

0101000
+15 0 -15 0 *
Ve
1e-07
5 -1.22464679914735e-15 0
0 0

0101101
*
Ed
 1e-07 1 1 0
1  11 0 0 3
3  21 22CN 10 0 0 3
0

0101000
-15 0 +13 0 *
Ed
 1e-07 1 1 0
1  12 0 0 6.28318530717959
2  23 10 0 0 6.28318530717959
2  24 12 0 0 6.28318530717959
0

0101000
+13 0 -13 0 *
Wi

0101100
-14 0 +12 0 +11 0 -12 0 *
Fa
0  1e-07 10 0

0111000
+10 0 *
Wi

0101100
+14 0 *
Fa
0  1e-07 11 0

0111000
+8 0 *
Wi

0101100
-11 0 *
Fa
0  1e-07 12 0

0111000
-6 0 *
Sh

0101100
+9 0 +7 0 -5 0 *
So

0100000
+4 0 *
Co

0100000
+3 8 *
Co

1100000
+44 1 +30 3 +16 5 +2 7 *

+1 0 